<?xml version="1.0" encoding="utf-8"?>
<!-- Generator: Adobe Illustrator 22.0.0, SVG Export Plug-In . SVG Version: 6.00 Build 0)  -->
<svg version="1.1" id="Layer_1" xmlns="http://www.w3.org/2000/svg" xmlns:xlink="http://www.w3.org/1999/xlink" x="0px" y="0px"
	 viewBox="0 0 73.3 47.2" style="enable-background:new 0 0 73.3 47.2;" xml:space="preserve">
<style type="text/css">
	.st0{fill:none;stroke:#59595B;stroke-miterlimit:10;}
	.st1{fill:none;stroke:#59595B;stroke-width:1.0141;stroke-miterlimit:10;}
	.st2{fill:#FFFFFF;stroke:#59595B;stroke-width:1.0141;stroke-miterlimit:10;}
	.st3{fill:#E53339;stroke:#59595B;stroke-width:1.0141;stroke-miterlimit:10;}
	.st4{fill:none;stroke:#59595B;stroke-width:1.0185;stroke-miterlimit:10;}
	.st5{fill:none;stroke:#ED1C23;stroke-width:1.0185;stroke-miterlimit:10;}
	.st6{fill:#ED1C23;}
	.st7{fill:none;stroke:#59595B;stroke-width:1.0384;stroke-miterlimit:10;}
	.st8{fill:none;stroke:#ED1C23;stroke-width:1.0384;stroke-miterlimit:10;}
	.st9{fill:none;stroke:#59595B;stroke-width:1.0041;stroke-miterlimit:10;}
	.st10{fill:none;stroke:#ED1C23;stroke-width:1.0041;stroke-miterlimit:10;}
	.st11{fill:none;stroke:#59595B;stroke-width:0.4732;stroke-miterlimit:10;}
	.st12{fill:none;stroke:#ED1C23;stroke-width:0.4732;stroke-miterlimit:10;}
	.st13{fill:none;stroke:#59595B;stroke-width:0.6098;stroke-miterlimit:10;}
	.st14{fill:none;stroke:#ED1C23;stroke-width:0.6098;stroke-miterlimit:10;}
	.st15{fill:none;stroke:#59595B;stroke-width:0.5873;stroke-miterlimit:10;}
	.st16{fill:none;stroke:#ED1C23;stroke-width:0.5873;stroke-miterlimit:10;}
	.st17{fill:none;stroke:#ED1C23;stroke-width:0.6092;stroke-miterlimit:10;}
	.st18{fill:none;stroke:#59595B;stroke-width:0.6092;stroke-miterlimit:10;}
	.st19{fill:none;stroke:#59595B;stroke-width:0.6065;stroke-miterlimit:10;}
	.st20{fill:none;stroke:#59595B;stroke-width:0.6022;stroke-miterlimit:10;}
	.st21{fill:#59595B;}
	.st22{fill:none;stroke:#59595B;stroke-width:0.9937;stroke-miterlimit:10;}
	.st23{fill:none;stroke:#ED1C23;stroke-width:0.9937;stroke-miterlimit:10;}
	.st24{fill:none;stroke:#ED1C23;stroke-width:0.6398;stroke-miterlimit:10;}
	.st25{fill:none;stroke:#59595B;stroke-width:0.6398;stroke-miterlimit:10;}
	.st26{fill:none;stroke:#59595B;stroke-width:0.3601;stroke-miterlimit:10;}
	.st27{fill:none;stroke:#ED1C23;stroke-width:0.3601;stroke-miterlimit:10;}
	.st28{fill:none;stroke:#59595B;stroke-width:0.4356;stroke-miterlimit:10;}
	.st29{fill:none;stroke:#ED1C23;stroke-width:0.4356;stroke-miterlimit:10;}
	.st30{fill:none;stroke:#59595B;stroke-width:0.4805;stroke-miterlimit:10;}
	.st31{fill:none;stroke:#ED1C23;stroke-width:0.4805;stroke-miterlimit:10;}
	.st32{fill:none;stroke:#ED1C23;stroke-width:0.4843;stroke-miterlimit:10;}
	.st33{fill:none;stroke:#59595B;stroke-width:0.4843;stroke-miterlimit:10;}
	.st34{fill:none;stroke:#ED1C23;stroke-width:0.406;stroke-miterlimit:10;}
	.st35{fill:none;stroke:#59595B;stroke-width:0.7836;stroke-miterlimit:10;}
	.st36{fill:none;stroke:#ED1C23;stroke-width:0.7836;stroke-miterlimit:10;}
	.st37{fill:none;stroke:#59595B;stroke-width:0.4459;stroke-miterlimit:10;}
	.st38{fill:none;stroke:#ED1C23;stroke-width:0.4459;stroke-miterlimit:10;}
	.st39{fill:#FFFFFF;stroke:#59595B;stroke-miterlimit:10;}
	.st40{fill:none;stroke:#E42528;stroke-linecap:round;stroke-linejoin:round;stroke-miterlimit:10;}
	.st41{fill:none;stroke:#59595B;stroke-linecap:round;stroke-linejoin:round;stroke-miterlimit:10;}
	.st42{fill:none;stroke:#59595B;stroke-width:0.7762;stroke-linecap:round;stroke-linejoin:round;stroke-miterlimit:10;}
	.st43{fill:none;stroke:#59595B;stroke-width:1.2525;stroke-linecap:round;stroke-linejoin:round;stroke-miterlimit:10;}
	.st44{fill:none;stroke:#E42528;stroke-width:1.2525;stroke-linecap:round;stroke-linejoin:round;stroke-miterlimit:10;}
	.st45{fill:none;stroke:#59595B;stroke-width:1.7055;stroke-linecap:round;stroke-linejoin:round;stroke-miterlimit:10;}
	.st46{fill:none;stroke:#E42528;stroke-width:1.7055;stroke-linecap:round;stroke-miterlimit:10;}
	.st47{fill:none;stroke:#E42528;stroke-width:2.3957;stroke-linecap:round;stroke-miterlimit:10;}
	.st48{fill:none;stroke:#59595B;stroke-width:2.3957;stroke-linecap:round;stroke-linejoin:round;stroke-miterlimit:10;}
	.st49{fill:#E42528;}
	.st50{fill:none;stroke:#E42528;stroke-width:1.5483;stroke-linecap:round;stroke-linejoin:round;stroke-miterlimit:10;}
	.st51{fill:none;stroke:#59595B;stroke-width:1.5483;stroke-linecap:round;stroke-linejoin:round;stroke-miterlimit:10;}
	.st52{fill:none;stroke:#59595B;stroke-width:2.45;stroke-linecap:round;stroke-linejoin:round;stroke-miterlimit:10;}
	.st53{fill:none;stroke:#E42528;stroke-width:2.45;stroke-linecap:round;stroke-linejoin:round;stroke-miterlimit:10;}
	.st54{fill:#FFFFFF;stroke:#59595B;stroke-width:2.45;stroke-linecap:round;stroke-linejoin:round;stroke-miterlimit:10;}
	.st55{fill:#FFFFFF;}
	.st56{fill:none;stroke:#ED1C23;stroke-miterlimit:10;}
</style>
<g>
	<path class="st21" d="M53.6,32.4c-1.7,0-3.2,1.4-3.2,3.2s1.4,3.2,3.2,3.2c1.7,0,3.2-1.4,3.2-3.2S55.3,32.4,53.6,32.4z M53.6,37.2
		c-0.9,0-1.6-0.7-1.6-1.6c0-0.9,0.7-1.6,1.6-1.6s1.6,0.7,1.6,1.6C55.2,36.5,54.5,37.2,53.6,37.2z"/>
	<path class="st21" d="M57.6,28.2 M45.4,33.9 M57.6,28.2c1.4,0,2.8,0.1,3.5,0.1c0.3,0,0.5-0.1,0.7-0.3c0.2-0.2,0.2-0.5,0.1-0.7
		c-0.9-2.3-3.6-4.9-4.4-5.7v-2.4c0-0.4-0.3-0.8-0.8-0.8h-6.1v-6.8c1.7,1,4.5,2.3,5.9,1.9c0.4-0.1,0.7-0.4,0.9-0.8
		c0.1-0.1,0.1-0.2,0.1-0.3v-11c0-0.4-0.3-0.8-0.8-0.8c-0.2,0-3.7,0.1-7.3,5.1l-4.3-0.1c-0.3,0-0.6,0.1-0.7,0.4l-1,1.8
		c-0.2,0.3-0.1,0.7,0.1,0.9l0.6,0.6L40.6,10c-0.4,0.1-0.6,0.4-0.6,0.8v3c0,0.2,0.1,0.5,0.3,0.6c0.1,0.1,0.3,0.1,0.4,0.1
		c0.1,0,0.2,0,0.2,0l3.5-1.2c-0.1,2.5-0.4,5.8-1.6,8.6c-1.5,3.6-4,5.4-7.4,5.4c-3,0-5.1-0.8-6.1-2.4c-1.9-2.9,0.3-7.8,0.3-7.8
		c0,0,0,0,0,0c0,0,0,0,0,0c0,0,0,0,0,0c0,0,0,0,0,0l1-3.9c0.1-0.2,0-0.5-0.1-0.7c-0.1-0.2-0.4-0.3-0.6-0.3h-4v-1.5h4.4
		c0.2,0,0.4-0.1,0.5-0.2c0.1-0.1,0.2-0.3,0.2-0.5c0-1.4-0.9-3.6-3.6-3.5c-3.3,0.1-5.1-0.9-6.2-1.6c-0.2-0.2-0.5-0.2-0.8,0
		s-0.4,0.4-0.4,0.7v4.5c0,0.4,0.3,0.8,0.8,0.8h3.5v1.5h-9v-1.5h2.8c0.4,0,0.8-0.3,0.8-0.8V6.4c0-0.4-0.3-0.8-0.8-0.8h-7.1
		c-0.4,0-0.8,0.3-0.8,0.8v3.5c0,0.4,0.3,0.8,0.8,0.8h2.8v1.5H9.4c-0.4,0-0.8,0.3-0.8,0.8v6.4c-0.7,0.4-1.3,0.9-1.9,1.4
		c-4,3.4-6.1,8.4-6.1,14.9c0,0.4,0.3,0.8,0.8,0.8h2.4c0.4,4.3,4,7.6,8.3,7.6s7.9-3.4,8.3-7.6h20c0.3,0,0.6-0.2,0.7-0.5
		c0,0,0.3-0.9,1-2.2l3.3,0.3c0.3,0,1.6,0,1.6,0c0.8-2.9,4.1-5.6,7.2-5.6L57.6,28.2z M21.9,9.1V6.8C23.1,7.3,25,8,27.8,7.9
		c1.2,0,1.7,0.6,1.9,1.2h-4.1c-0.1,0-0.1,0-0.2,0c-0.1,0-0.1,0-0.2,0L21.9,9.1L21.9,9.1z M12.1,9.1v-2h5.5v2h-2.6
		c-0.1,0-0.1,0-0.2,0c-0.1,0-0.1,0-0.2,0H12.1z M41.5,12.7v-1.3l4.9-1v0.7L41.5,12.7z M10.1,13.6h4.8h10.5h3.7l-0.6,2.2
		c-1.2-0.2-4-0.4-7.4-0.2c-4.2,0.2-8,1.2-11,2.8V13.6z M12.2,42.4c-3.5,0-6.4-2.7-6.8-6.1h3.7c0.3,1.4,1.6,2.4,3.1,2.4
		s2.7-1,3.1-2.4H19C18.6,39.8,15.7,42.4,12.2,42.4z M10.8,36.3h2.9c-0.3,0.5-0.8,0.9-1.4,0.9C11.6,37.2,11,36.9,10.8,36.3z
		 M39.9,34.8H19.8h-5.2H9.8H4.6H2.2c0.2-5.6,2-10,5.5-13c6.5-5.6,17.1-4.8,20.3-4.4c-0.6,1.8-1.6,5.6,0.1,8.3c1.3,2,3.8,3.1,7.4,3.1
		c4,0,7.1-2.2,8.8-6.3c1.3-3.2,1.7-6.9,1.7-9.7l1.4-0.5c0.3-0.1,0.5-0.4,0.5-0.7V9.5c0-0.2-0.1-0.4-0.3-0.6
		c-0.2-0.1-0.4-0.2-0.6-0.2l-1.2,0.2c0-0.2-0.1-0.3-0.2-0.4L45.1,8l0.5-0.8l4.2,0.1c0.3,0,0.5-0.1,0.7-0.3c2.2-3.3,4.4-4.3,5.5-4.6
		V12c-0.3,0-1.1,0-3-0.9c-1.4-0.7-2.7-1.4-2.7-1.5c-0.2-0.1-0.5-0.1-0.8,0c-0.2,0.1-0.4,0.4-0.4,0.7v8.9c0,0.4,0.3,0.8,0.8,0.8H56
		v1.2c-4.7,0.2-9,2.7-12.3,7.1C41.5,31,40.4,33.7,39.9,34.8z M42.9,32.1c0.5-0.9,1.2-1.9,1.9-3c3.2-4.2,7.1-6.4,11.6-6.5
		c0.6,0.6,2.4,2.4,3.4,4.1c-2.2-0.1-6.5-0.1-8.5,0.8c-2.5,0.7-4.5,2.5-5.5,4.9L42.9,32.1z M47,33.8"/>
</g>
<ellipse class="st50" cx="63.6" cy="39.6" rx="8.1" ry="4"/>
<path class="st50" d="M55.5,39.6v2c0,2.2,3.6,4,8.1,4s8.1-1.8,8.1-4v-2.3"/>
<line class="st51" x1="50.4" y1="29.4" x2="53.5" y2="35.6"/>
<path class="st50" d="M61.2,40c0,0,2.4,1.2,5,0"/>
</svg>
