<?xml version="1.0" encoding="utf-8"?>
<!-- Generator: Adobe Illustrator 21.1.0, SVG Export Plug-In . SVG Version: 6.00 Build 0)  -->
<svg version="1.1" id="Layer_1" xmlns="http://www.w3.org/2000/svg" xmlns:xlink="http://www.w3.org/1999/xlink" x="0px" y="0px"
	 viewBox="0 0 83 607" style="enable-background:new 0 0 83 607;" xml:space="preserve">
<style type="text/css">
	.st0{fill:none;stroke:#000000;stroke-width:1.2635;stroke-miterlimit:10;}
	.st1{fill:#E43338;stroke:#000000;stroke-width:1.2635;stroke-miterlimit:10;}
	.st2{fill:#E43338;}
	.st3{fill:#999999;}
	.st4{fill:#FFFFFF;}
	.st5{fill-rule:evenodd;clip-rule:evenodd;fill:#E43338;stroke:#E43338;stroke-width:0.4486;stroke-miterlimit:10;}
	.st6{fill:#E43338;stroke:#E43338;stroke-width:0.2535;stroke-miterlimit:10;}
	.st7{fill:#999999;stroke:#999999;stroke-width:0.2535;stroke-miterlimit:10;}
	.st8{fill:#E43338;stroke:#E43338;stroke-width:0.3802;stroke-miterlimit:10;}
</style>
<g>
	<polygon class="st0" points="35.8,36.2 19.5,24.1 3.2,36.2 3.2,56.6 35.8,56.6 	"/>
	<polyline class="st1" points="31.7,28.7 31.7,24.1 35.8,24.1 35.8,32.2 	"/>
	<polyline class="st0" points="39,34.6 19.5,20 0,34.6 	"/>
	<rect x="15.6" y="44.4" class="st1" width="8" height="12"/>
</g>
<g>
	<path class="st2" d="M13.7,136.6c-0.5,0-1-0.4-1-1v-10c0-0.5,0.4-1,1-1h6c0.5,0,1,0.4,1,1v7.5c0,0.5-0.4,1-1,1c-0.5,0-1-0.4-1-1
		v-6.5h-4v9C14.7,136.1,14.3,136.6,13.7,136.6z"/>
	<path class="st3" d="M51.3,159.9c-0.5,0-1-0.4-1-1v-23.9c0-0.5,0.4-1,1-1c0.5,0,1,0.4,1,1v23.9C52.3,159.4,51.9,159.9,51.3,159.9z"
		/>
	<path class="st3" d="M6.3,159.7c-0.5,0-1-0.4-1-1v-19.2c0-0.5,0.4-1,1-1c0.5,0,1,0.4,1,1v19.2C7.3,159.2,6.9,159.7,6.3,159.7z"/>
	<path class="st3" d="M1,142.8c-0.4,0-0.7-0.2-0.9-0.6c-0.2-0.5,0-1.1,0.5-1.3l36.8-16.7c0.1-0.1,0.3-0.1,0.4-0.1
		c0.2,0,0.4,0.1,0.6,0.2l19.2,13.2c0.2,0.2,0.4,0.4,0.4,0.6c0,0.3,0,0.5-0.2,0.7c-0.2,0.3-0.5,0.4-0.8,0.4c-0.2,0-0.4-0.1-0.6-0.2
		l-18.8-12.9L1.4,142.7C1.3,142.8,1.1,142.8,1,142.8z"/>
	<path class="st2" d="M59,135.1c-0.2,0-0.4-0.1-0.6-0.2L40,122c-0.4-0.3-0.6-0.9-0.2-1.4c0.2-0.3,0.5-0.4,0.8-0.4
		c0.2,0,0.4,0.1,0.6,0.2l18.4,12.9c0.2,0.2,0.4,0.4,0.4,0.6c0,0.3,0,0.5-0.2,0.7C59.6,134.9,59.3,135.1,59,135.1z"/>
	<path class="st2" d="M1.3,161c-0.5,0-1-0.4-1-1s0.4-1,1-1h56.2c0.5,0,1,0.4,1,1s-0.4,1-1,1H1.3z"/>
	<ellipse class="st4" cx="36" cy="143.7" rx="7" ry="7.3"/>
	<g id="_x31__44_">
		<g>
			<path class="st3" d="M38.1,136c-4.2-1.2-8.5,1.3-9.7,5.4c-1.2,4.2,1.3,8.5,5.4,9.7c4.2,1.2,8.5-1.3,9.7-5.4
				C44.7,141.5,42.3,137.1,38.1,136z M42.3,145.3c-1,3.5-4.6,5.5-8.1,4.5c-3.5-1-5.5-4.6-4.5-8.1c1-3.5,4.6-5.5,8.1-4.5
				C41.2,138.2,43.3,141.8,42.3,145.3z"/>
		</g>
	</g>
	<path class="st5" d="M38.9,141.7c0.1-0.2,0.1-0.4,0-0.6c-0.2-0.1-0.4-0.1-0.6,0l-3.4,3.8l-1.1-1.6c-0.1-0.2-0.4-0.2-0.5-0.1
		c-0.2,0.1-0.2,0.4-0.1,0.5l1.4,2c0.1,0.2,0.4,0.2,0.5,0.1C35.1,145.9,38.9,141.7,38.9,141.7z"/>
</g>
<g>
	<path class="st2" d="M13.7,238.9c-0.5,0-1-0.4-1-1v-10c0-0.5,0.4-1,1-1h6c0.5,0,1,0.4,1,1v7.5c0,0.5-0.4,1-1,1c-0.5,0-1-0.4-1-1
		v-6.5h-4v9C14.7,238.5,14.3,238.9,13.7,238.9z"/>
	<path class="st3" d="M51.3,262.2c-0.5,0-1-0.4-1-1v-23.9c0-0.5,0.4-1,1-1c0.5,0,1,0.4,1,1v23.9C52.3,261.8,51.9,262.2,51.3,262.2z"
		/>
	<path class="st3" d="M6.3,262c-0.5,0-1-0.4-1-1v-19.2c0-0.5,0.4-1,1-1c0.5,0,1,0.4,1,1V261C7.3,261.6,6.9,262,6.3,262z"/>
	<path class="st3" d="M1,245.1c-0.4,0-0.7-0.2-0.9-0.6c-0.2-0.5,0-1.1,0.5-1.3l36.8-16.7c0.1-0.1,0.3-0.1,0.4-0.1
		c0.2,0,0.4,0.1,0.6,0.2l19.2,13.2c0.2,0.2,0.4,0.4,0.4,0.6c0,0.3,0,0.5-0.2,0.7c-0.2,0.3-0.5,0.4-0.8,0.4c-0.2,0-0.4-0.1-0.6-0.2
		l-18.8-12.9L1.4,245C1.3,245.1,1.1,245.1,1,245.1z"/>
	<path class="st2" d="M59,237.4c-0.2,0-0.4-0.1-0.6-0.2L40,224.4c-0.4-0.3-0.6-0.9-0.2-1.4c0.2-0.3,0.5-0.4,0.8-0.4
		c0.2,0,0.4,0.1,0.6,0.2l18.4,12.9c0.2,0.2,0.4,0.4,0.4,0.6c0,0.3,0,0.5-0.2,0.7C59.6,237.3,59.3,237.4,59,237.4z"/>
	<path class="st2" d="M1.3,263.3c-0.5,0-1-0.4-1-1c0-0.5,0.4-1,1-1h56.2c0.5,0,1,0.4,1,1c0,0.5-0.4,1-1,1H1.3z"/>
	<ellipse class="st4" cx="36" cy="246.1" rx="7" ry="7.3"/>
	<g id="_x31__2_">
		<g>
			<path class="st3" d="M38.1,238.3c-4.2-1.2-8.5,1.3-9.7,5.4c-1.2,4.2,1.3,8.5,5.4,9.7c4.2,1.2,8.5-1.3,9.7-5.4
				C44.7,243.8,42.3,239.5,38.1,238.3z M42.3,247.6c-1,3.5-4.6,5.5-8.1,4.5c-3.5-1-5.5-4.6-4.5-8.1c1-3.5,4.6-5.5,8.1-4.5
				C41.2,240.5,43.3,244.1,42.3,247.6z"/>
		</g>
	</g>
	<path class="st5" d="M38.7,248.4c-0.2,0.2-0.5,0.2-0.7,0l-1.6-1.6l-1.6,1.6c-0.2,0.2-0.5,0.2-0.7,0c-0.2-0.2-0.2-0.5,0-0.7l1.6-1.6
		l-1.6-1.6c-0.2-0.2-0.2-0.5,0-0.7c0.2-0.2,0.5-0.2,0.7,0l1.6,1.6l1.6-1.6c0.2-0.2,0.5-0.2,0.7,0c0.2,0.2,0.2,0.5,0,0.7l-1.6,1.6
		l1.6,1.6C38.9,247.9,38.9,248.2,38.7,248.4z"/>
</g>
<g>
	<path class="st2" d="M13.7,341.3c-0.5,0-1-0.4-1-1v-10c0-0.5,0.4-1,1-1h6c0.5,0,1,0.4,1,1v7.5c0,0.5-0.4,1-1,1c-0.5,0-1-0.4-1-1
		v-6.5h-4v9C14.7,340.8,14.3,341.3,13.7,341.3z"/>
	<path class="st3" d="M51.3,364.5c-0.5,0-1-0.4-1-1v-23.9c0-0.5,0.4-1,1-1c0.5,0,1,0.4,1,1v23.9C52.3,364.1,51.9,364.5,51.3,364.5z"
		/>
	<path class="st3" d="M6.3,364.3c-0.5,0-1-0.4-1-1v-19.2c0-0.5,0.4-1,1-1c0.5,0,1,0.4,1,1v19.2C7.3,363.9,6.9,364.3,6.3,364.3z"/>
	<path class="st3" d="M1,347.4c-0.4,0-0.7-0.2-0.9-0.6c-0.2-0.5,0-1.1,0.5-1.3l36.8-16.7c0.1-0.1,0.3-0.1,0.4-0.1
		c0.2,0,0.4,0.1,0.6,0.2l19.2,13.2c0.2,0.2,0.4,0.4,0.4,0.6c0,0.3,0,0.5-0.2,0.7c-0.2,0.3-0.5,0.4-0.8,0.4c-0.2,0-0.4-0.1-0.6-0.2
		l-18.8-12.9L1.4,347.4C1.3,347.4,1.1,347.4,1,347.4z"/>
	<path class="st2" d="M59,339.8c-0.2,0-0.4-0.1-0.6-0.2L40,326.7c-0.4-0.3-0.6-0.9-0.2-1.4c0.2-0.3,0.5-0.4,0.8-0.4
		c0.2,0,0.4,0.1,0.6,0.2l18.4,12.9c0.2,0.2,0.4,0.4,0.4,0.6c0,0.3,0,0.5-0.2,0.7C59.6,339.6,59.3,339.8,59,339.8z"/>
	<path class="st2" d="M1.3,365.7c-0.5,0-1-0.4-1-1s0.4-1,1-1h56.2c0.5,0,1,0.4,1,1s-0.4,1-1,1H1.3z"/>
	<g>
		<path class="st2" d="M36.3,352.4L36.3,352.4c-0.9-1-1.6-2-2.6-3l0,0v-0.8h0.7c1,0,1.6-0.3,1.7-1h-2.4v-0.8H36
			c-0.2-0.5-0.7-0.7-1.5-0.7h-0.9v-0.9h4.7v0.8h-1.6c0.2,0.2,0.3,0.5,0.4,0.8h1.2v0.8h-1.2c-0.1,1-0.9,1.7-2.2,1.8
			c0.8,0.8,1.6,1.9,2.4,2.8l0.2,0.2H36.3z"/>
	</g>
	<g id="_x33__44_">
		<g>
			<path class="st3" d="M26.7,345.7h4.4c0.3,0,0.6-0.3,0.6-0.6c0-0.3-0.3-0.6-0.6-0.6h-2.9c1.4-2.9,4.4-4.9,7.8-4.9
				c4.3,0,7.9,3.2,8.5,7.4h1.2c-0.6-4.9-4.8-8.6-9.8-8.6c-3.7,0-7,2.1-8.6,5.1v-2.7c0-0.3-0.3-0.6-0.6-0.6c-0.3,0-0.6,0.3-0.6,0.6
				v4.4C26.1,345.7,26.7,345.7,26.7,345.7z M45.2,350.7h-4.4c-0.3,0-0.6,0.3-0.6,0.6c0,0.3,0.3,0.6,0.6,0.6h2.9
				c-1.4,2.9-4.3,4.9-7.8,4.9c-4.3,0-7.9-3.2-8.5-7.4h-1.2c0.6,4.9,4.8,8.6,9.8,8.6c3.7,0,7-2.1,8.6-5.1v2.7c0,0.3,0.3,0.6,0.6,0.6
				c0.3,0,0.6-0.3,0.6-0.6v-4.4C45.8,350.6,45.2,350.7,45.2,350.7z"/>
		</g>
	</g>
</g>
<g>
	<path class="st3" d="M54.3,465.4c-0.5,0-1-0.4-1-1v-10.3h-7.1c-0.5,0-1-0.4-1-1c0-0.5,0.4-1,1-1h8.1c0.5,0,1,0.4,1,1v11.2
		C55.3,464.9,54.8,465.4,54.3,465.4z"/>
	<path class="st3" d="M6.8,465.2c-0.5,0-1-0.4-1-1v-13.8c0-0.5,0.4-1,1-1h7.1c0.5,0,1,0.4,1,1c0,0.5-0.4,1-1,1H7.8v12.8
		C7.8,464.8,7.3,465.2,6.8,465.2z"/>
	<path class="st2" d="M1,465.4c-0.6,0-1-0.5-1-1s0.5-1,1-1H59c0.6,0,1,0.5,1,1s-0.5,1-1,1H1z"/>
	<path class="st2" d="M45.9,461.2c-0.5,0-1-0.4-1-1v-16.3h-6.7c-0.5,0-1-0.4-1-1c0-0.5,0.4-1,1-1h7.7c0.5,0,1,0.4,1,1v17.3
		C46.9,460.7,46.4,461.2,45.9,461.2z"/>
	<path class="st2" d="M13.8,461.2c-0.5,0-1-0.4-1-1v-25.7c0-0.5,0.4-1,1-1h7.7c0.5,0,1,0.4,1,1c0,0.5-0.4,1-1,1h-6.7v24.7
		C14.8,460.7,14.4,461.2,13.8,461.2z"/>
	<path class="st3" d="M22,458.3c-0.5,0-1-0.4-1-1v-26.5c0-0.5,0.4-1,1-1H38c0.5,0,1,0.4,1,1V457c0,0.5-0.4,1-1,1c-0.5,0-1-0.4-1-1
		v-25.2H23v25.5C23,457.9,22.6,458.3,22,458.3z"/>
</g>
<g>
	<g>
		<path class="st6" d="M25.5,516.1H3.8c-0.3,0-0.6,0.3-0.6,0.6v5.4c0,0.3,0.3,0.6,0.6,0.6h21.7c0.3,0,0.6-0.3,0.6-0.6v-5.4
			C26.1,516.4,25.8,516.1,25.5,516.1z M24.9,521.6H4.4v-4.3h20.5V521.6z"/>
	</g>
	<g>
		<path class="st7" d="M8.2,524.8H3.8c-0.3,0-0.6,0.3-0.6,0.6v4.3c0,0.3,0.3,0.6,0.6,0.6h4.3c0.3,0,0.6-0.3,0.6-0.6v-4.3
			C8.7,525.1,8.5,524.8,8.2,524.8z M7.6,529.1H4.4V526h3.2V529.1z"/>
	</g>
	<g>
		<path class="st7" d="M16.8,524.8h-4.3c-0.3,0-0.6,0.3-0.6,0.6v4.3c0,0.3,0.3,0.6,0.6,0.6h4.3c0.3,0,0.6-0.3,0.6-0.6v-4.3
			C17.4,525.1,17.1,524.8,16.8,524.8z M16.3,529.1h-3.2V526h3.2V529.1z"/>
	</g>
	<g>
		<path class="st7" d="M25.5,524.8h-4.3c-0.3,0-0.6,0.3-0.6,0.6v4.3c0,0.3,0.3,0.6,0.6,0.6h4.3c0.3,0,0.6-0.3,0.6-0.6v-4.3
			C26.1,525.1,25.8,524.8,25.5,524.8z M24.9,529.1h-3.2V526h3.2V529.1z"/>
	</g>
	<g>
		<path class="st7" d="M8.2,533.5H3.8c-0.3,0-0.6,0.3-0.6,0.6v4.3c0,0.3,0.3,0.6,0.6,0.6h4.3c0.3,0,0.6-0.3,0.6-0.6v-4.3
			C8.7,533.7,8.5,533.5,8.2,533.5z M7.6,537.8H4.4v-3.2h3.2V537.8z"/>
	</g>
	<path class="st7" d="M53.2,527v-8.9L62,527H53.2z M63.4,563.9c0.3,0,0.6-0.3,0.6-0.6v-35.8c0-0.2-0.1-0.3-0.2-0.4L53,516.3
		c-0.1-0.1-0.3-0.2-0.4-0.2H29.3v-0.6c0-1.4-1.2-2.6-2.6-2.6H2.6c-1.4,0-2.6,1.2-2.6,2.6v32.8c0,1.4,1.2,2.6,2.6,2.6h8.2v25.4
		c0,0.3,0.3,0.6,0.6,0.6h52c0.3,0,0.6-0.3,0.6-0.6v-7.6c0-0.3-0.3-0.6-0.6-0.6s-0.6,0.3-0.6,0.6v7H12v-24.9h14.7
		c1.4,0,2.6-1.2,2.6-2.6v-17.5c0-0.3-0.3-0.6-0.6-0.6c-0.3,0-0.6,0.3-0.6,0.6v17.5c0,0.8-0.7,1.5-1.5,1.5H2.6
		c-0.8,0-1.5-0.7-1.5-1.5v-32.8c0-0.8,0.7-1.5,1.5-1.5h24.1c0.8,0,1.5,0.7,1.5,1.5v9.9c0,0.3,0.3,0.6,0.6,0.6c0.3,0,0.6-0.3,0.6-0.6
		v-8.1h22.7l0,0.5c0,0,0,0,0,0v9.8c0,0.3,0.3,0.6,0.6,0.6h9.8c0,0,0,0,0,0l0.5,0l0,0.5v34.8C62.9,563.6,63.1,563.9,63.4,563.9z"/>
	<path class="st7" d="M16.8,533.5h-4.3c-0.3,0-0.6,0.3-0.6,0.6v4.3c0,0.3,0.3,0.6,0.6,0.6h4.3c0.3,0,0.6-0.3,0.6-0.6v-4.3
		C17.4,533.7,17.1,533.5,16.8,533.5z M16.3,537.8h-3.2v-3.2h3.2V537.8z"/>
	<path class="st7" d="M8.2,542.1H3.8c-0.3,0-0.6,0.3-0.6,0.6v4.3c0,0.3,0.3,0.6,0.6,0.6h4.3c0.3,0,0.6-0.3,0.6-0.6v-4.3
		C8.7,542.4,8.5,542.1,8.2,542.1z M7.6,546.5H4.4v-3.2h3.2V546.5z"/>
	<path class="st7" d="M16.8,542.1h-4.3c-0.3,0-0.6,0.3-0.6,0.6v4.3c0,0.3,0.3,0.6,0.6,0.6h4.3c0.3,0,0.6-0.3,0.6-0.6v-4.3
		C17.4,542.4,17.1,542.1,16.8,542.1z M16.3,546.5h-3.2v-3.2h3.2V546.5z"/>
	<path class="st7" d="M25.5,533.5h-4.3c-0.3,0-0.6,0.3-0.6,0.6v13c0,0.3,0.3,0.6,0.6,0.6h4.3c0.3,0,0.6-0.3,0.6-0.6v-13
		C26.1,533.7,25.8,533.5,25.5,533.5z M24.9,546.5h-3.2v-11.9h3.2V546.5z"/>
	<path class="st7" d="M59.7,537.1c0-0.2-0.1-0.3-0.2-0.5l-5.5-5.3c-0.1-0.1-0.3-0.2-0.5-0.2c-0.2,0-0.3,0.1-0.4,0.2
		c-0.1,0.1-0.2,0.3-0.2,0.5c0,0.2,0.1,0.3,0.2,0.4l5.1,4.8l-1.4,1.4l-14.9-14.9c-0.1-0.1-0.2-0.1-0.3-0.2l-3.9-0.8l-1.9-2.1
		c-0.1-0.1-0.3-0.2-0.4-0.2c-0.2,0-0.3,0.1-0.5,0.2c-0.3,0.2-0.3,0.6,0,0.9c0.7,0.8,1.9,2.1,2.1,2.3l0.1,0.1l0.7,3.5
		c0,0.1,0.1,0.2,0.2,0.3l16.2,16.2c0.5,0.5,1.2,0.8,1.9,0.8c0.7,0,1.4-0.3,1.9-0.8l0.2-0.2c1-1,1-2.7,0-3.8l-0.4-0.4l1.9-1.9
		C59.7,537.5,59.7,537.3,59.7,537.1z M39,526.9l-0.5-2.7l2.7,0.5l0.1,0.1l10.1,10.1l-2.2,2.2L39,526.9z M57.2,542.7l-0.2,0.2
		c-0.3,0.3-0.6,0.4-1,0.4c-0.4,0-0.7-0.1-1-0.4l-5-5l2.2-2.2l5,5C57.8,541.3,57.8,542.2,57.2,542.7z"/>
	<path class="st7" d="M25.3,560.1c0,0.3-0.3,0.6-0.6,0.6h-6.8c-0.3,0-0.6-0.3-0.6-0.6c0-0.4,0.3-0.6,0.6-0.6h6.8
		C25,559.4,25.3,559.7,25.3,560.1z"/>
	<path class="st8" d="M32.8,586.4c0,0.3-0.3,0.6-0.6,0.6H0.6c-0.3,0-0.6-0.3-0.6-0.6c0-0.4,0.3-0.6,0.6-0.6h31.5
		C32.5,585.7,32.8,586,32.8,586.4z"/>
	<path class="st7" d="M25.3,564.6c0,0.3-0.3,0.6-0.6,0.6h-6.8c-0.3,0-0.6-0.3-0.6-0.6c0-0.4,0.3-0.6,0.6-0.6h6.8
		C25,564,25.3,564.3,25.3,564.6z"/>
	<path class="st7" d="M59.7,559c0,8.1-6.6,14.7-14.7,14.7c-8.1,0-14.7-6.6-14.7-14.7c0-2.4,0.6-4.7,1.7-6.8c0.1-0.2,0.3-0.3,0.6-0.3
		c0.1,0,0.2,0,0.3,0.1c0.3,0.2,0.4,0.5,0.3,0.9c-1,1.9-1.5,4-1.5,6.2c0,7.4,6,13.5,13.5,13.5c7.4,0,13.5-6,13.5-13.5
		c0-7.4-6-13.5-13.5-13.5c-3.7,0-7.1,1.5-9.7,4.1c-0.1,0.1-0.3,0.2-0.4,0.2c-0.2,0-0.3-0.1-0.5-0.2c-0.1-0.1-0.2-0.3-0.2-0.4
		c0-0.2,0.1-0.3,0.2-0.5c2.8-2.9,6.6-4.5,10.6-4.5C53.1,544.3,59.7,550.9,59.7,559z"/>
	<path id="XMLID_440_" class="st6" d="M49.2,555.8h-1.4c-0.1-0.5-0.4-0.9-0.7-1.2h2.1c0.3,0,0.6-0.3,0.6-0.6c0-0.3-0.3-0.6-0.6-0.6
		h-7.5c-0.3,0-0.6,0.3-0.6,0.6c0,0,0,0,0,0c0,0,0,0,0,0c0,0.3,0.3,0.6,0.6,0.6h2.8c0,0,0,0,0,0c0.9,0,1.6,0.5,2,1.2h-4.8
		c-0.3,0-0.6,0.3-0.6,0.6s0.3,0.6,0.6,0.6h5.1c-0.1,1.1-1.1,2-2.2,2h-2.8c-0.3,0-0.6,0.3-0.6,0.6c0,0,0,0,0,0c0,0,0,0,0,0
		c0,0.3,0.3,0.6,0.6,0.6h2.8c0,0,0,0,0,0c1.2,0,2.2,1,2.2,2.2v3.7c0,0.3,0.3,0.6,0.6,0.6s0.6-0.3,0.6-0.6v-3.7
		c0-1.2-0.6-2.2-1.5-2.8c0.9-0.6,1.4-1.5,1.5-2.6h1.2c0.3,0,0.6-0.3,0.6-0.6S49.5,555.8,49.2,555.8z"/>
</g>
</svg>
