<?xml version="1.0" encoding="utf-8"?>
<!-- Generator: Adobe Illustrator 21.1.0, SVG Export Plug-In . SVG Version: 6.00 Build 0)  -->
<svg version="1.1" id="Layer_1" xmlns="http://www.w3.org/2000/svg" xmlns:xlink="http://www.w3.org/1999/xlink" x="0px" y="0px"
	 viewBox="0 0 166 1911" style="enable-background:new 0 0 166 1911;" xml:space="preserve" >
<style type="text/css">
	.st0{fill:#FFFFFF;stroke:#231F20;stroke-width:3;stroke-miterlimit:10;}
	.st1{fill:#E43338;stroke:#231F20;stroke-width:3;stroke-miterlimit:10;}
	.st2{fill:none;stroke:#231F20;stroke-width:3;stroke-miterlimit:10;}
	.st3{fill:#E43338;}
	.st4{fill:#999999;}
	.st5{fill:#FFFFFF;}
	.st6{fill:#E43338;stroke:#E43338;stroke-miterlimit:10;}
	.st7{fill:none;stroke:#999999;stroke-width:2.7516;stroke-miterlimit:10;}
	.st8{fill:none;stroke:#E43338;stroke-width:2.7516;stroke-miterlimit:10;}
	.st9{fill:none;stroke:#999999;stroke-width:3.3473;stroke-linecap:round;stroke-miterlimit:10;}
	.st10{fill:none;stroke:#E43338;stroke-width:3.3473;stroke-linecap:round;stroke-miterlimit:10;}
	.st11{fill:#E43338;stroke:#E43338;stroke-width:0.3881;stroke-miterlimit:10;}
	.st12{fill:#999999;stroke:#999999;stroke-width:0.3881;stroke-miterlimit:10;}
	.st13{fill:#E43338;stroke:#E43338;stroke-width:0.5822;stroke-miterlimit:10;}
	.st14{fill:#999999;stroke:#999999;stroke-miterlimit:10;}
	.st15{fill:none;stroke:#E43338;stroke-width:2;stroke-miterlimit:10;}
	.st16{fill:none;stroke:#999999;stroke-width:3;stroke-miterlimit:10;}
	.st17{fill:#FFFFFF;stroke:#999999;stroke-width:2.5655;stroke-miterlimit:10;}
</style>
<g>
	<polygon class="st0" points="89.8,122.4 49,91.7 8.2,122.4 8.2,173.4 89.8,173.4 	"/>
	<polyline class="st1" points="79.6,103.4 79.6,91.7 89.8,91.7 89.8,112.2 	"/>
	<polyline class="st2" points="98,118.3 49,81.5 0,118.3 	"/>
	<rect x="39.1" y="142.8" class="st1" width="20.1" height="30.2"/>
</g>
<g>
	<path class="st3" d="M22.4,270c-0.9,0-1.6-0.7-1.6-1.6V252c0-0.9,0.7-1.6,1.6-1.6h9.8c0.9,0,1.6,0.7,1.6,1.6v12.3
		c0,0.9-0.7,1.6-1.6,1.6c-0.9,0-1.6-0.7-1.6-1.6v-10.7H24v14.8C24,269.3,23.3,270,22.4,270z"/>
	<path class="st4" d="M83.8,308c-0.9,0-1.6-0.7-1.6-1.6v-39.1c0-0.9,0.7-1.6,1.6-1.6s1.6,0.7,1.6,1.6v39.1
		C85.4,307.3,84.7,308,83.8,308z"/>
	<path class="st4" d="M10.4,307.7c-0.9,0-1.6-0.7-1.6-1.6v-31.4c0-0.9,0.7-1.6,1.6-1.6c0.9,0,1.6,0.7,1.6,1.6v31.4
		C12,306.9,11.3,307.7,10.4,307.7z"/>
	<path class="st4" d="M1.6,280.1c-0.6,0-1.2-0.4-1.5-1c-0.4-0.8,0-1.8,0.8-2.2L61,249.7c0.2-0.1,0.4-0.1,0.7-0.1s0.6,0.1,0.9,0.3
		L94,271.4c0.4,0.2,0.6,0.6,0.7,1s0,0.9-0.3,1.2c-0.3,0.4-0.8,0.7-1.3,0.7c-0.3,0-0.6-0.1-0.9-0.3l-30.6-21L2.3,280
		C2.1,280.1,1.9,280.1,1.6,280.1z"/>
	<path class="st3" d="M96.4,267.5c-0.3,0-0.7-0.1-0.9-0.3l-30-21c-0.7-0.5-0.9-1.5-0.4-2.3c0.3-0.4,0.8-0.7,1.3-0.7
		c0.3,0,0.7,0.1,0.9,0.3l30,21c0.4,0.2,0.6,0.6,0.7,1.1c0.1,0.4,0,0.9-0.3,1.2C97.4,267.3,96.9,267.5,96.4,267.5z"/>
	<path class="st3" d="M2.2,309.9c-0.9,0-1.6-0.7-1.6-1.6s0.7-1.6,1.6-1.6H94c0.9,0,1.6,0.7,1.6,1.6s-0.7,1.6-1.6,1.6H2.2z"/>
	<ellipse class="st5" cx="58.8" cy="281.7" rx="11.4" ry="12"/>
	<g id="_x31__44_">
		<g>
			<path class="st4" d="M62.2,269c-6.8-1.9-13.9,2.1-15.8,8.9s2.1,13.9,8.9,15.8s13.9-2.1,15.8-8.9C73,278,69,270.9,62.2,269z
				 M69.1,284.2c-1.6,5.7-7.5,9-13.2,7.4s-9-7.5-7.4-13.2s7.5-9,13.2-7.4S70.7,278.5,69.1,284.2z"/>
		</g>
	</g>
	<path class="st6" d="M63.5,278.3c0.2-0.3,0.2-0.7-0.1-0.9c-0.3-0.2-0.7-0.2-0.9,0.1l-5.5,6.2l-1.8-2.6c-0.2-0.3-0.6-0.4-0.9-0.2
		c-0.3,0.2-0.4,0.6-0.2,0.9l2.3,3.3c0.2,0.3,0.6,0.4,0.9,0.2C57.4,285.2,63.5,278.3,63.5,278.3z"/>
</g>
<g>
	<path class="st3" d="M22.4,419.1c-0.9,0-1.6-0.7-1.6-1.6v-16.4c0-0.9,0.7-1.6,1.6-1.6h9.8c0.9,0,1.6,0.7,1.6,1.6v12.3
		c0,0.9-0.7,1.6-1.6,1.6c-0.9,0-1.6-0.7-1.6-1.6v-10.7H24v14.8C24,418.4,23.3,419.1,22.4,419.1z"/>
	<path class="st4" d="M83.8,457.1c-0.9,0-1.6-0.7-1.6-1.6v-39.1c0-0.9,0.7-1.6,1.6-1.6s1.6,0.7,1.6,1.6v39.1
		C85.4,456.4,84.7,457.1,83.8,457.1z"/>
	<path class="st4" d="M10.4,456.8c-0.9,0-1.6-0.7-1.6-1.6v-31.4c0-0.9,0.7-1.6,1.6-1.6c0.9,0,1.6,0.7,1.6,1.6v31.4
		C12,456,11.3,456.8,10.4,456.8z"/>
	<path class="st4" d="M1.6,429.2c-0.6,0-1.2-0.4-1.5-1c-0.4-0.8,0-1.8,0.8-2.2L61,398.8c0.2-0.1,0.4-0.1,0.7-0.1s0.6,0.1,0.9,0.3
		L94,420.5c0.4,0.2,0.6,0.6,0.7,1s0,0.9-0.3,1.2c-0.3,0.4-0.8,0.7-1.3,0.7c-0.3,0-0.6-0.1-0.9-0.3l-30.6-21L2.3,429
		C2.1,429.1,1.9,429.2,1.6,429.2z"/>
	<path class="st3" d="M96.4,416.6c-0.3,0-0.7-0.1-0.9-0.3l-30-21c-0.7-0.5-0.9-1.5-0.4-2.3c0.3-0.4,0.8-0.7,1.3-0.7
		c0.3,0,0.7,0.1,0.9,0.3l30,21c0.4,0.2,0.6,0.6,0.7,1.1c0.1,0.4,0,0.9-0.3,1.2C97.4,416.4,96.9,416.6,96.4,416.6z"/>
	<path class="st3" d="M2.2,458.9c-0.9,0-1.6-0.7-1.6-1.6s0.7-1.6,1.6-1.6H94c0.9,0,1.6,0.7,1.6,1.6s-0.7,1.6-1.6,1.6H2.2z"/>
	<ellipse class="st5" cx="58.8" cy="430.8" rx="11.4" ry="12"/>
	<g id="_x31__2_">
		<g>
			<path class="st4" d="M62.2,418.1c-6.8-1.9-13.9,2.1-15.8,8.9s2.1,13.9,8.9,15.8s13.9-2.1,15.8-8.9C73,427.1,69,420,62.2,418.1z
				 M69.1,433.3c-1.6,5.7-7.5,9-13.2,7.4s-9-7.5-7.4-13.2s7.5-9,13.2-7.4S70.7,427.6,69.1,433.3z"/>
		</g>
	</g>
	<path class="st6" d="M63.3,434.5c-0.3,0.3-0.8,0.3-1.1,0l-2.7-2.7l-2.7,2.7c-0.3,0.3-0.8,0.3-1.1,0s-0.3-0.8,0-1.1l2.7-2.7
		l-2.7-2.7c-0.3-0.3-0.3-0.8,0-1.1c0.3-0.3,0.8-0.3,1.1,0l2.7,2.7l2.7-2.7c0.3-0.3,0.8-0.3,1.1,0s0.3,0.8,0,1.1l-2.7,2.7l2.7,2.7
		C63.6,433.7,63.6,434.2,63.3,434.5z"/>
</g>
<g>
	<path class="st3" d="M22.4,568.2c-0.9,0-1.6-0.7-1.6-1.6v-16.4c0-0.9,0.7-1.6,1.6-1.6h9.8c0.9,0,1.6,0.7,1.6,1.6v12.3
		c0,0.9-0.7,1.6-1.6,1.6c-0.9,0-1.6-0.7-1.6-1.6v-10.7H24v14.8C24,567.4,23.3,568.2,22.4,568.2z"/>
	<path class="st4" d="M83.8,606.2c-0.9,0-1.6-0.7-1.6-1.6v-39.1c0-0.9,0.7-1.6,1.6-1.6s1.6,0.7,1.6,1.6v39.1
		C85.4,605.5,84.7,606.2,83.8,606.2z"/>
	<path class="st4" d="M10.4,605.9c-0.9,0-1.6-0.7-1.6-1.6v-31.4c0-0.9,0.7-1.6,1.6-1.6c0.9,0,1.6,0.7,1.6,1.6v31.4
		C12,605.1,11.3,605.9,10.4,605.9z"/>
	<path class="st4" d="M1.6,578.3c-0.6,0-1.2-0.4-1.5-1c-0.4-0.8,0-1.8,0.8-2.2L61,547.9c0.2-0.1,0.4-0.1,0.7-0.1s0.6,0.1,0.9,0.3
		L94,569.6c0.4,0.2,0.6,0.6,0.7,1s0,0.9-0.3,1.2c-0.3,0.4-0.8,0.7-1.3,0.7c-0.3,0-0.6-0.1-0.9-0.3l-30.6-21L2.3,578.1
		C2.1,578.2,1.9,578.3,1.6,578.3z"/>
	<path class="st3" d="M96.4,565.7c-0.3,0-0.7-0.1-0.9-0.3l-30-21c-0.7-0.5-0.9-1.5-0.4-2.3c0.3-0.4,0.8-0.7,1.3-0.7
		c0.3,0,0.7,0.1,0.9,0.3l30,21c0.4,0.2,0.6,0.6,0.7,1.1c0.1,0.4,0,0.9-0.3,1.2C97.4,565.5,96.9,565.7,96.4,565.7z"/>
	<path class="st3" d="M2.2,608c-0.9,0-1.6-0.7-1.6-1.6s0.7-1.6,1.6-1.6H94c0.9,0,1.6,0.7,1.6,1.6S94.9,608,94,608H2.2z"/>
	<g>
		<path class="st3" d="M59.3,586.4L59.3,586.4c-1.4-1.7-2.7-3.2-4.3-4.9l-0.1-0.1v-1.3H56c1.6,0,2.5-0.6,2.8-1.6H55v-1.2h3.8
			c-0.3-0.7-1.1-1.1-2.4-1.1H55v-1.5h7.6v1.2H60c0.3,0.4,0.6,0.8,0.6,1.4h1.9v1.2h-1.9c-0.2,1.7-1.5,2.7-3.5,2.9
			c1.3,1.4,2.7,3,4,4.6l0.3,0.3L59.3,586.4L59.3,586.4z"/>
	</g>
	<g id="_x33__44_">
		<g>
			<path class="st4" d="M43.6,575.5h7.1c0.6,0,1-0.5,1-1c0-0.6-0.5-1-1-1H46c2.3-4.8,7.1-8.1,12.7-8.1c7.1,0,13,5.3,13.9,12.1h2
				c-1-7.9-7.8-14.1-16-14.1c-6.1,0-11.4,3.4-14.1,8.3v-4.4c0-0.6-0.5-1-1-1c-0.6,0-1,0.5-1,1v7.1C42.6,575.4,43.6,575.5,43.6,575.5
				z M73.9,583.5h-7.1c-0.6,0-1,0.5-1,1c0,0.6,0.5,1,1,1h4.8c-2.3,4.8-7.1,8.1-12.7,8.1c-7.1,0-13-5.3-13.9-12.1h-2
				c1,7.9,7.8,14.1,16,14.1c6.1,0,11.4-3.4,14.1-8.3v4.4c0,0.6,0.5,1,1,1c0.6,0,1-0.5,1-1v-7.1C74.9,583.5,73.9,583.5,73.9,583.5z"
				/>
		</g>
	</g>
</g>
<g>
	<path class="st4" d="M88.7,752.8c-0.9,0-1.6-0.7-1.6-1.6v-16.8H75.5c-0.9,0-1.6-0.7-1.6-1.6c0-0.9,0.7-1.6,1.6-1.6h13.2
		c0.9,0,1.6,0.7,1.6,1.6v18.4C90.3,752.1,89.5,752.8,88.7,752.8z"/>
	<path class="st4" d="M11.1,752.6c-0.9,0-1.6-0.7-1.6-1.6v-22.5c0-0.9,0.7-1.6,1.6-1.6h11.5c0.9,0,1.6,0.7,1.6,1.6
		c0,0.9-0.7,1.6-1.6,1.6h-9.9V751C12.7,751.8,12,752.6,11.1,752.6z"/>
	<path class="st3" d="M1.7,752.9c-0.9,0-1.7-0.8-1.7-1.7s0.8-1.7,1.7-1.7h94.6c0.9,0,1.7,0.8,1.7,1.7s-0.8,1.7-1.7,1.7H1.7z"/>
	<path class="st3" d="M74.9,746c-0.9,0-1.6-0.7-1.6-1.6v-26.6h-11c-0.9,0-1.6-0.7-1.6-1.6c0-0.9,0.7-1.6,1.6-1.6h12.6
		c0.9,0,1.6,0.7,1.6,1.6v28.2C76.6,745.3,75.8,746,74.9,746z"/>
	<path class="st3" d="M22.6,746c-0.9,0-1.6-0.7-1.6-1.6v-41.9c0-0.9,0.7-1.6,1.6-1.6h12.6c0.9,0,1.6,0.7,1.6,1.6
		c0,0.9-0.7,1.6-1.6,1.6h-11v40.3C24.2,745.3,23.5,746,22.6,746z"/>
	<path class="st4" d="M36,741.3c-0.9,0-1.6-0.7-1.6-1.6v-43.3c0-0.9,0.7-1.6,1.6-1.6h26c0.9,0,1.6,0.7,1.6,1.6v42.8
		c0,0.9-0.7,1.6-1.6,1.6c-0.9,0-1.6-0.7-1.6-1.6V698H37.6v41.7C37.6,740.6,36.9,741.3,36,741.3z"/>
</g>
<g>
	<rect x="13" y="1183.9" class="st7" width="6.8" height="6.8"/>
	<rect x="25.5" y="1183.9" class="st7" width="6.8" height="6.8"/>
	<rect x="37.5" y="1183.9" class="st7" width="6.8" height="6.8"/>
	<polygon class="st7" points="53.4,1190.4 50,1190.7 50,1183.9 56.8,1183.9 	"/>
	<rect x="37.5" y="1150.5" class="st7" width="6.8" height="6.8"/>
	<rect x="50" y="1150.5" class="st7" width="6.8" height="6.8"/>
	<rect x="62" y="1150.5" class="st7" width="6.8" height="6.8"/>
	<rect x="13" y="1165.7" class="st7" width="6.8" height="6.8"/>
	<rect x="25.5" y="1165.7" class="st7" width="6.8" height="6.8"/>
	<rect x="37.5" y="1165.7" class="st7" width="6.8" height="6.8"/>
	<rect x="50" y="1165.7" class="st7" width="6.8" height="6.8"/>
	<rect x="74.5" y="1150.5" class="st7" width="6.8" height="6.8"/>
	<line class="st7" x1="13" y1="1153.7" x2="18.8" y2="1153.7"/>
	<line class="st7" x1="62" y1="1169.3" x2="67.8" y2="1169.3"/>
	<line class="st7" x1="26.1" y1="1153.7" x2="31.3" y2="1153.7"/>
	<line class="st8" x1="9.4" y1="1129.7" x2="87" y2="1129.7"/>
	<path class="st8" d="M0,1133.9v-8.9c-0.1-1.4,0.9-2.5,2.3-2.6c0.1,0,0.2,0,0.3,0h91.2c1.4-0.1,2.5,0.9,2.6,2.3c0,0.1,0,0.2,0,0.3
		v8.9"/>
	<path class="st7" d="M96.4,1188.1v-50H0v66c-0.1,1.4,0.9,2.5,2.3,2.6c0.1,0,0.2,0,0.3,0h52.1"/>
	<circle class="st8" cx="75.6" cy="1197.4" r="22.4"/>
	<polyline class="st8" points="78.7,1187 78.7,1196.9 72.5,1203.7 	"/>
</g>
<g>
	<g>
		<path class="st4" d="M71.9,1034.6l2.2-2.2L37,994.7l-14,14.4v-7.4H10.5v20.1L0,1032.6l2.2,2.2l3.6-3.6v36.2H1.1v3.1H73v-3.1h-4.7
			V1031L71.9,1034.6z M13.6,1004.8h6.3v7.4l-6.3,6.4C13.6,1018.6,13.6,1004.8,13.6,1004.8z M27.7,1067.3v-25h18.8v25H27.7z
			 M65.2,1067.3H49.6v-28.1h-25v28.1H8.9v-39.4L37,999.1l28.1,28.6L65.2,1067.3L65.2,1067.3z"/>
		<rect x="35.5" y="1017.3" class="st3" width="3.1" height="3.1"/>
		<rect x="41.7" y="1017.3" class="st3" width="3.1" height="3.1"/>
		<rect x="29.2" y="1017.3" class="st3" width="3.1" height="3.1"/>
		<path class="st3" d="M76.1,973.6c-12.1,0-21.9,7.7-21.9,17.2c0,4.2,1.9,8.2,5.4,11.3l-1.2,9.5l7.2-5.7c3.2,1.4,6.8,2.1,10.5,2.1
			c12.1,0,21.9-7.7,21.9-17.2S88.2,973.6,76.1,973.6z M76.1,1004.8c-3.5,0-6.5-0.6-10.9-2.6l-2.7,2.1l0.4-3.5c0,0-5.6-3.9-5.6-10
			c0-7.8,8.4-14.1,18.8-14.1s18.8,6.3,18.8,14.1S86.5,1004.8,76.1,1004.8z"/>
		<path class="st4" d="M73.5,986c0-1.4-0.6-4.7-4.2-4.7c-3.2,0-4.2,2.6-4.2,4.7c0,1.4,0.6,4.7,4.2,4.7
			C72.9,990.8,73.5,987.4,73.5,986z M69.3,988.2c-1.4,0-1.6-1.5-1.6-2.2s0.2-2.2,1.6-2.2s1.6,1.5,1.6,2.2S70.7,988.2,69.3,988.2z"/>
		<path class="st4" d="M82.9,989.2c-3.1,0-4.2,2.6-4.2,4.7c0,1.4,0.5,4.5,4.2,4.7c3.5,0.1,4.2-3.4,4.2-4.7S86.6,989.2,82.9,989.2z
			 M82.9,996.1c-1.4,0-1.6-1.5-1.6-2.2s0.2-2.2,1.6-2.2s1.6,1.5,1.6,2.2C84.6,994.5,84.3,996.1,82.9,996.1z"/>
		<path class="st4" d="M82,981.7c-0.5-0.4-1.5-0.4-2,0.3l-9.8,14.6c-0.4,0.6-0.2,1.2,0.2,1.5c0.2,0.2,1.3,0.8,2-0.2l9.8-14.5
			C82.6,982.6,82.2,981.9,82,981.7z"/>
	</g>
	<rect x="1.1" y="1067.3" class="st3" width="71.9" height="3.1"/>
</g>
<g>
	<g>
		<path class="st9" d="M60.4,895.5H40.7c0-1.1-0.1-4.4-0.1-4.6c0-0.3,0-0.6,0-0.8h0.6c2.6,0,4.8-2.1,4.8-4.8c0-2.6-2.1-4.7-4.7-4.8
			c0.6-4.5,1.5-9,2.8-13.4c0.9-3.1,1.9-6.1,3-9.1c0.6-1.6,1.2-3,2-4.6c0.9-1.9,1.7-3.8,2.1-5.9c0.9-3.8,0.4-7.9-1.4-11.4
			c-2.9-5.8-9-9.5-15.5-9.5s-12.6,3.7-15.5,9.5c-1.8,3.5-2.3,7.6-1.4,11.4c0.5,2,1.2,4,2.1,5.9c0.7,1.5,1.4,3,2,4.6
			c1.1,3,2.1,6,3,9.1c1.2,4.4,2.2,8.9,2.8,13.4c-2.6,0-4.7,2.2-4.7,4.8s2.1,4.8,4.8,4.8H28c0,0.3,0,0.6,0,0.8c0,0.3-0.1,3.5-0.1,4.6
			H8.1c-4.5,0-8.1,3.6-8.1,8.1v9.3h68.5v-9.3C68.5,899.1,64.8,895.5,60.4,895.5z"/>
		<line class="st10" x1="5.7" y1="919.3" x2="62.8" y2="919.3"/>
		<path class="st10" d="M34.2,832.4c-6.3,0-11.5,5.1-11.5,11.5"/>
	</g>
	<g>
		<circle class="st9" cx="79.2" cy="866.2" r="18.8"/>
		<line class="st10" x1="71.9" y1="873.5" x2="86.4" y2="859"/>
		<line class="st10" x1="79.7" y1="875.7" x2="88.6" y2="866.8"/>
		<line class="st10" x1="78.6" y1="856.8" x2="69.7" y2="865.7"/>
	</g>
</g>
<g>
	<g>
		<path class="st11" d="M39,1268.4H5.9c-0.5,0-0.9,0.4-0.9,0.9v8.3c0,0.5,0.4,0.9,0.9,0.9H39c0.5,0,0.9-0.4,0.9-0.9v-8.3
			C39.9,1268.8,39.5,1268.4,39,1268.4z M38.2,1276.7H6.7v-6.5h31.4v6.5H38.2z"/>
	</g>
	<g>
		<path class="st12" d="M12.5,1281.7H5.9c-0.5,0-0.9,0.4-0.9,0.9v6.6c0,0.5,0.4,0.9,0.9,0.9h6.6c0.5,0,0.9-0.4,0.9-0.9v-6.6
			C13.4,1282.1,13,1281.7,12.5,1281.7z M11.6,1288.3H6.7v-4.9h4.9V1288.3z"/>
	</g>
	<g>
		<path class="st12" d="M25.8,1281.7h-6.6c-0.5,0-0.9,0.4-0.9,0.9v6.6c0,0.5,0.4,0.9,0.9,0.9h6.6c0.5,0,0.9-0.4,0.9-0.9v-6.6
			C26.6,1282.1,26.3,1281.7,25.8,1281.7z M24.9,1288.3H20v-4.9h4.9V1288.3z"/>
	</g>
	<g>
		<path class="st12" d="M39,1281.7h-6.6c-0.5,0-0.9,0.4-0.9,0.9v6.6c0,0.5,0.4,0.9,0.9,0.9H39c0.5,0,0.9-0.4,0.9-0.9v-6.6
			C39.9,1282.1,39.5,1281.7,39,1281.7z M38.2,1288.3h-4.9v-4.9h4.9V1288.3z"/>
	</g>
	<g>
		<path class="st12" d="M12.5,1295H5.9c-0.5,0-0.9,0.4-0.9,0.9v6.6c0,0.5,0.4,0.9,0.9,0.9h6.6c0.5,0,0.9-0.4,0.9-0.9v-6.6
			C13.4,1295.4,13,1295,12.5,1295z M11.6,1301.6H6.7v-4.9h4.9V1301.6z"/>
	</g>
	<path class="st12" d="M81.4,1285v-13.6L95,1285H81.4z M97.1,1341.5c0.5,0,0.9-0.4,0.9-0.9v-54.8c0-0.2-0.1-0.5-0.3-0.6l-16.6-16.6
		c-0.2-0.2-0.4-0.3-0.6-0.3H44.9v-1c0-2.2-1.8-4-4-4H4c-2.2,0-4,1.8-4,4v50.2c0,2.2,1.8,4,4,4h12.6v38.9c0,0.5,0.4,0.9,0.9,0.9h79.7
		c0.5,0,0.9-0.4,0.9-0.9V1349c0-0.5-0.4-0.9-0.9-0.9s-0.9,0.4-0.9,0.9v10.7h-78v-38.1h22.6c2.2,0,4-1.8,4-4v-26.8
		c0-0.5-0.4-0.9-0.9-0.9s-0.9,0.4-0.9,0.9v26.8c0,1.2-1,2.2-2.2,2.2H4c-1.2,0-2.2-1-2.2-2.2v-50.2c0-1.2,1-2.2,2.2-2.2h36.9
		c1.2,0,2.2,1,2.2,2.2v15.1c0,0.5,0.4,0.9,0.9,0.9s0.9-0.4,0.9-0.9v-12.4h34.8l-0.1,0.7c0,0,0,0,0,0.1v14.9c0,0.5,0.4,0.9,0.9,0.9
		h14.9l0,0l0.7-0.1v0.7v53.2C96.2,1341.1,96.6,1341.5,97.1,1341.5z"/>
	<path class="st12" d="M25.8,1295h-6.6c-0.5,0-0.9,0.4-0.9,0.9v6.6c0,0.5,0.4,0.9,0.9,0.9h6.6c0.5,0,0.9-0.4,0.9-0.9v-6.6
		C26.6,1295.4,26.3,1295,25.8,1295z M24.9,1301.6H20v-4.9h4.9V1301.6z"/>
	<path class="st12" d="M12.5,1308.3H5.9c-0.5,0-0.9,0.4-0.9,0.9v6.6c0,0.5,0.4,0.9,0.9,0.9h6.6c0.5,0,0.9-0.4,0.9-0.9v-6.6
		C13.4,1308.7,13,1308.3,12.5,1308.3z M11.6,1314.9H6.7v-4.9h4.9V1314.9z"/>
	<path class="st12" d="M25.8,1308.3h-6.6c-0.5,0-0.9,0.4-0.9,0.9v6.6c0,0.5,0.4,0.9,0.9,0.9h6.6c0.5,0,0.9-0.4,0.9-0.9v-6.6
		C26.6,1308.7,26.3,1308.3,25.8,1308.3z M24.9,1314.9H20v-4.9h4.9V1314.9z"/>
	<path class="st12" d="M39,1295h-6.6c-0.5,0-0.9,0.4-0.9,0.9v19.9c0,0.5,0.4,0.9,0.9,0.9H39c0.5,0,0.9-0.4,0.9-0.9v-19.9
		C39.9,1295.4,39.5,1295,39,1295z M38.2,1314.9h-4.9v-18.2h4.9V1314.9z"/>
	<path class="st12" d="M91.5,1300.6c0-0.3-0.1-0.5-0.3-0.7l-8.5-8c-0.2-0.2-0.4-0.3-0.7-0.3c-0.3,0-0.5,0.1-0.7,0.3
		c-0.2,0.2-0.3,0.4-0.3,0.7c0,0.3,0.1,0.5,0.3,0.7l7.7,7.4l-2.1,2.1L64.2,1280c-0.1-0.1-0.3-0.2-0.5-0.3l-6-1.2l-2.9-3.2
		c-0.2-0.2-0.4-0.3-0.7-0.3s-0.5,0.1-0.7,0.3c-0.4,0.4-0.4,1-0.1,1.4c1.1,1.2,3,3.2,3.2,3.5l0.2,0.1l1.1,5.3c0,0.2,0.1,0.4,0.3,0.5
		l24.8,24.8c0.8,0.8,1.8,1.2,2.9,1.2s2.1-0.4,2.9-1.2l0.3-0.3c1.6-1.6,1.6-4.2,0-5.8l-0.6-0.6l2.8-2.8
		C91.4,1301.1,91.5,1300.8,91.5,1300.6z M59.7,1284.9l-0.8-4.1l4.1,0.8l0.1,0.1l15.4,15.4l-3.3,3.3L59.7,1284.9z M87.6,1309.1
		l-0.3,0.3c-0.4,0.4-1,0.6-1.5,0.6s-1.1-0.2-1.5-0.6l-7.7-7.7l3.3-3.3l7.7,7.7C88.4,1307,88.4,1308.3,87.6,1309.1z"/>
	<path class="st12" d="M38.8,1335.7c0,0.5-0.4,1-1,1H27.4c-0.5,0-1-0.4-1-1c0-0.5,0.4-1,1-1h10.4
		C38.3,1334.7,38.8,1335.2,38.8,1335.7z"/>
	<path class="st13" d="M50.2,1376c0,0.5-0.4,1-1,1H1c-0.5,0-1-0.4-1-1c0-0.5,0.4-1,1-1h48.2C49.7,1375,50.2,1375.4,50.2,1376z"/>
	<path class="st12" d="M38.8,1342.7c0,0.5-0.4,1-1,1H27.4c-0.5,0-1-0.4-1-1c0-0.5,0.4-1,1-1h10.4
		C38.3,1341.7,38.8,1342.1,38.8,1342.7z"/>
	<path class="st12" d="M91.5,1334c0,12.4-10.1,22.5-22.5,22.5s-22.5-10.1-22.5-22.5c0-3.6,0.9-7.2,2.5-10.4c0.2-0.3,0.5-0.5,0.9-0.5
		c0.2,0,0.3,0,0.4,0.1c0.5,0.2,0.7,0.8,0.4,1.3c-1.5,3-2.3,6.2-2.3,9.5c0,11.4,9.2,20.6,20.6,20.6s20.6-9.2,20.6-20.6
		s-9.2-20.6-20.6-20.6c-5.7,0-10.9,2.3-14.9,6.3c-0.2,0.2-0.4,0.3-0.7,0.3s-0.5-0.1-0.7-0.3c-0.2-0.2-0.3-0.4-0.3-0.7
		c0-0.3,0.1-0.5,0.3-0.7c4.3-4.5,10.1-6.9,16.3-6.9C81.3,1311.5,91.5,1321.6,91.5,1334z"/>
	<path id="XMLID_440_" class="st11" d="M75.3,1329.1h-2.1c-0.2-0.7-0.6-1.3-1-1.9h3.1c0.5,0,0.9-0.4,0.9-0.9s-0.4-0.9-0.9-0.9H63.7
		c-0.5,0-0.9,0.4-0.9,0.9l0,0l0,0c0,0.5,0.4,0.9,0.9,0.9h4.4l0,0c1.3,0,2.5,0.8,3,1.9h-7.4c-0.5,0-0.9,0.4-0.9,0.9s0.4,0.9,0.9,0.9
		h7.8c-0.2,1.7-1.6,3.1-3.4,3.1h-4.4c-0.5,0-0.9,0.4-0.9,0.9l0,0l0,0c0,0.5,0.4,0.9,0.9,0.9h4.4l0,0c1.9,0,3.4,1.5,3.4,3.4v5.6
		c0,0.5,0.4,0.9,0.9,0.9s0.9-0.4,0.9-0.9v-5.6c0-1.8-0.9-3.4-2.3-4.4c1.3-0.9,2.2-2.4,2.3-4h1.9c0.5,0,0.9-0.4,0.9-0.9
		C76.2,1329.6,75.8,1329.1,75.3,1329.1z"/>
</g>
<g>
	<path class="st3" d="M49,1433.7c-13.1,0-23.6,10.6-23.6,23.6c0,13.1,10.6,23.6,23.6,23.6s23.6-10.6,23.6-23.6
		C72.6,1444.3,62.1,1433.7,49,1433.7z M49,1477.9c-11.4,0-20.6-9.2-20.6-20.6s9.2-20.6,20.6-20.6s20.6,9.2,20.6,20.6
		C69.6,1468.7,60.4,1477.9,49,1477.9z"/>
	<path class="st4" d="M28.5,1513.9l2.8,1.3l6.7-14.3h22l6.7,14.3l2.8-1.3l-10.9-23.2H98v-3.1h-9.2v-61.3H98v-3.1H0v3.1h9.2v61.3H0
		v3.1h39.4L28.5,1513.9z M58.5,1497.8h-19l3.3-7.1h12.4L58.5,1497.8z M12.2,1426.4h73.5v61.3H12.2V1426.4z"/>
	<polygon class="st3" points="55.1,1445.8 40.3,1468.8 43,1468.8 57.7,1445.8 	"/>
	<path class="st3" d="M57,1454.7c-1.8,0-3.1,0.6-4,1.8c-0.9,1.2-1.4,3-1.4,5.4c0,2.3,0.5,4.1,1.4,5.4c0.9,1.2,2.3,1.9,4,1.9
		c1.8,0,3.2-0.6,4.1-1.8c0.9-1.2,1.4-3,1.4-5.4c0-2.3-0.5-4.1-1.4-5.3C60,1455.3,58.7,1454.7,57,1454.7z M59.2,1465.9
		c-0.5,0.9-1.2,1.3-2.3,1.3c-1,0-1.8-0.4-2.2-1.3c-0.5-0.9-0.7-2.2-0.7-4s0.2-3.1,0.7-4s1.2-1.3,2.2-1.3s1.8,0.4,2.3,1.3
		s0.7,2.2,0.7,4C59.9,1463.7,59.7,1465,59.2,1465.9z"/>
	<path class="st3" d="M45,1458.1c0.9-1.2,1.4-3,1.4-5.4c0-2.3-0.5-4.1-1.4-5.3s-2.3-1.9-4.1-1.9s-3.1,0.6-4,1.8
		c-0.9,1.2-1.4,3-1.4,5.4c0,2.3,0.5,4.1,1.4,5.4c0.9,1.2,2.3,1.9,4,1.9C42.7,1459.9,44.1,1459.3,45,1458.1z M38.7,1456.6
		c-0.5-0.9-0.7-2.2-0.7-4s0.2-3.1,0.7-4s1.2-1.3,2.2-1.3c2,0,3,1.8,3,5.3c0,3.6-1,5.4-3,5.4C39.9,1458,39.2,1457.5,38.7,1456.6z"/>
</g>
<g>
	<g>
		<path class="st14" d="M6.2,1803.2h64.7c3.5,0,6.2-2.8,6.2-6.2v-85.1c0-3.5-2.8-6.2-6.2-6.2H6.2c-3.5,0-6.2,2.8-6.2,6.2v85.1
			C0,1800.3,2.8,1803.2,6.2,1803.2z M1.6,1711.7c0-2.6,2.1-4.6,4.6-4.6h64.7c2.6,0,4.6,2.1,4.6,4.6v85.1c0,2.6-2.1,4.6-4.6,4.6H6.2
			c-2.6,0-4.6-2.1-4.6-4.6V1711.7z"/>
	</g>
	<g>
		<path class="st15" d="M38.6,1763.3c-4.1,0-8-1.2-11.2-3.3v26.5l11.2-12.6l11.2,12.6V1760C46.5,1762.1,42.7,1763.3,38.6,1763.3z"/>
		<circle class="st16" cx="38.6" cy="1742.8" r="20.6"/>
		<circle class="st15" cx="38.6" cy="1742.8" r="12.3"/>
	</g>
</g>
<g>
	<g>
		<g>
			<path class="st3" d="M51.9,1583H8c-0.6,0-1.2,0.5-1.2,1.2v11c0,0.6,0.5,1.2,1.2,1.2h43.9c0.6,0,1.2-0.5,1.2-1.2v-11
				C53,1583.5,52.5,1583,51.9,1583z M50.7,1593.9H9.2v-8.7h41.6L50.7,1593.9L50.7,1593.9z"/>
			<path class="st3" d="M51.9,1596.5H8c-0.8,0-1.4-0.6-1.4-1.4v-11c0-0.8,0.6-1.4,1.4-1.4h43.9c0.8,0,1.4,0.6,1.4,1.4v11
				C53.3,1595.9,52.7,1596.5,51.9,1596.5z M8,1583.2c-0.5,0-0.9,0.4-0.9,0.9v11c0,0.5,0.4,0.9,0.9,0.9h43.9c0.5,0,0.9-0.4,0.9-0.9
				v-11c0-0.5-0.4-0.9-0.9-0.9H8z M51,1594.2H8.9v-9.2H51V1594.2z M9.4,1593.7h41v-8.1h-41C9.4,1585.6,9.4,1593.7,9.4,1593.7z"/>
		</g>
	</g>
	<g>
		<g>
			<path class="st4" d="M16.8,1600.5H8c-0.6,0-1.2,0.5-1.2,1.2v8.8c0,0.6,0.5,1.2,1.2,1.2h8.8c0.6,0,1.2-0.5,1.2-1.2v-8.8
				C17.9,1601,17.4,1600.5,16.8,1600.5z M15.6,1609.3H9.2v-6.5h6.5L15.6,1609.3L15.6,1609.3z"/>
			<path class="st4" d="M16.8,1611.9H8c-0.8,0-1.4-0.6-1.4-1.4v-8.8c0-0.8,0.6-1.4,1.4-1.4h8.8c0.8,0,1.4,0.6,1.4,1.4v8.8
				C18.2,1611.2,17.6,1611.9,16.8,1611.9z M8,1600.8c-0.5,0-0.9,0.4-0.9,0.9v8.8c0,0.5,0.4,0.9,0.9,0.9h8.8c0.5,0,0.9-0.4,0.9-0.9
				v-8.8c0-0.5-0.4-0.9-0.9-0.9H8z M15.9,1609.5h-7v-7h7V1609.5z M9.4,1609h5.9v-5.9H9.4V1609z"/>
		</g>
	</g>
	<g>
		<g>
			<path class="st4" d="M34.3,1600.5h-8.8c-0.6,0-1.2,0.5-1.2,1.2v8.8c0,0.6,0.5,1.2,1.2,1.2h8.8c0.6,0,1.2-0.5,1.2-1.2v-8.8
				C35.5,1601,35,1600.5,34.3,1600.5z M33.2,1609.3h-6.5v-6.5h6.5V1609.3z"/>
			<path class="st4" d="M34.3,1611.9h-8.8c-0.8,0-1.4-0.6-1.4-1.4v-8.8c0-0.8,0.6-1.4,1.4-1.4h8.8c0.8,0,1.4,0.6,1.4,1.4v8.8
				C35.7,1611.2,35.1,1611.9,34.3,1611.9z M25.5,1600.8c-0.5,0-0.9,0.4-0.9,0.9v8.8c0,0.5,0.4,0.9,0.9,0.9h8.8
				c0.5,0,0.9-0.4,0.9-0.9v-8.8c0-0.5-0.4-0.9-0.9-0.9H25.5z M33.4,1609.5h-7v-7h7V1609.5z M27,1609h5.9v-5.9H27V1609z"/>
		</g>
	</g>
	<g>
		<g>
			<path class="st4" d="M51.9,1600.5h-8.8c-0.6,0-1.2,0.5-1.2,1.2v8.8c0,0.6,0.5,1.2,1.2,1.2h8.8c0.6,0,1.2-0.5,1.2-1.2v-8.8
				C53,1601,52.5,1600.5,51.9,1600.5z M50.7,1609.3h-6.5v-6.5h6.5V1609.3z"/>
			<path class="st4" d="M51.9,1611.9h-8.8c-0.8,0-1.4-0.6-1.4-1.4v-8.8c0-0.8,0.6-1.4,1.4-1.4h8.8c0.8,0,1.4,0.6,1.4,1.4v8.8
				C53.3,1611.2,52.7,1611.9,51.9,1611.9z M43.1,1600.8c-0.5,0-0.9,0.4-0.9,0.9v8.8c0,0.5,0.4,0.9,0.9,0.9h8.8
				c0.5,0,0.9-0.4,0.9-0.9v-8.8c0-0.5-0.4-0.9-0.9-0.9H43.1z M51,1609.5h-7v-7h7V1609.5z M44.5,1609h5.9v-5.9h-5.9V1609z"/>
		</g>
	</g>
	<g>
		<g>
			<path class="st4" d="M16.8,1618.1H8c-0.6,0-1.2,0.5-1.2,1.2v8.8c0,0.6,0.5,1.2,1.2,1.2h8.8c0.6,0,1.2-0.5,1.2-1.2v-8.8
				C17.9,1618.6,17.4,1618.1,16.8,1618.1z M15.6,1626.8H9.2v-6.5h6.5L15.6,1626.8L15.6,1626.8z"/>
			<path class="st4" d="M16.8,1629.4H8c-0.8,0-1.4-0.6-1.4-1.4v-8.8c0-0.8,0.6-1.4,1.4-1.4h8.8c0.8,0,1.4,0.6,1.4,1.4v8.8
				C18.2,1628.8,17.6,1629.4,16.8,1629.4z M8,1618.3c-0.5,0-0.9,0.4-0.9,0.9v8.8c0,0.5,0.4,0.9,0.9,0.9h8.8c0.5,0,0.9-0.4,0.9-0.9
				v-8.8c0-0.5-0.4-0.9-0.9-0.9H8z M15.9,1627.1h-7v-7h7V1627.1z M9.4,1626.6h5.9v-5.9H9.4V1626.6z"/>
		</g>
	</g>
	<path class="st4" d="M24.8,1653.5h29.6c3,0,5.5-2.5,5.5-5.5v-35.4c0-0.8-0.6-1.4-1.4-1.4c-0.8,0-1.4,0.6-1.4,1.4v35.4
		c0,1.5-1.2,2.7-2.7,2.7H5.5c-1.5,0-2.7-1.2-2.7-2.7v-66.4c0-1.5,1.2-2.7,2.7-2.7h48.8c1.5,0,2.7,1.2,2.7,2.7v20
		c0,0.8,0.6,1.4,1.4,1.4c0.8,0,1.4-0.6,1.4-1.4v-16.1v-2.8v-1.1c0-3-2.5-5.5-5.5-5.5H5.5c-3,0-5.5,2.5-5.5,5.5v66.4
		c0,3,2.5,5.5,5.5,5.5h16.4H24.8z"/>
	<g>
		<path class="st4" d="M34.3,1618.1h-8.8c-0.6,0-1.2,0.5-1.2,1.2v8.8c0,0.6,0.5,1.2,1.2,1.2h8.8c0.6,0,1.2-0.5,1.2-1.2v-8.8
			C35.5,1618.6,35,1618.1,34.3,1618.1z M33.2,1626.8h-6.5v-6.5h6.5V1626.8z"/>
		<path class="st4" d="M34.3,1629.4h-8.8c-0.8,0-1.4-0.6-1.4-1.4v-8.8c0-0.8,0.6-1.4,1.4-1.4h8.8c0.8,0,1.4,0.6,1.4,1.4v8.8
			C35.7,1628.8,35.1,1629.4,34.3,1629.4z M25.5,1618.3c-0.5,0-0.9,0.4-0.9,0.9v8.8c0,0.5,0.4,0.9,0.9,0.9h8.8c0.5,0,0.9-0.4,0.9-0.9
			v-8.8c0-0.5-0.4-0.9-0.9-0.9H25.5z M33.4,1627.1h-7v-7h7V1627.1z M27,1626.6h5.9v-5.9H27V1626.6z"/>
	</g>
	<g>
		<path class="st4" d="M16.8,1635.6H8c-0.6,0-1.2,0.5-1.2,1.2v8.8c0,0.6,0.5,1.2,1.2,1.2h8.8c0.6,0,1.2-0.5,1.2-1.2v-8.8
			C17.9,1636.1,17.4,1635.6,16.8,1635.6z M15.6,1644.4H9.2v-6.5h6.5L15.6,1644.4L15.6,1644.4z"/>
		<path class="st4" d="M16.8,1647H8c-0.8,0-1.4-0.6-1.4-1.4v-8.8c0-0.8,0.6-1.4,1.4-1.4h8.8c0.8,0,1.4,0.6,1.4,1.4v8.8
			C18.2,1646.3,17.6,1647,16.8,1647z M8,1635.9c-0.5,0-0.9,0.4-0.9,0.9v8.8c0,0.5,0.4,0.9,0.9,0.9h8.8c0.5,0,0.9-0.4,0.9-0.9v-8.8
			c0-0.5-0.4-0.9-0.9-0.9H8z M15.9,1644.6h-7v-7h7V1644.6z M9.4,1644.1h5.9v-5.9H9.4V1644.1z"/>
	</g>
	<g>
		<path class="st4" d="M34.3,1635.6h-8.8c-0.6,0-1.2,0.5-1.2,1.2v8.8c0,0.6,0.5,1.2,1.2,1.2h8.8c0.6,0,1.2-0.5,1.2-1.2v-8.8
			C35.5,1636.1,35,1635.6,34.3,1635.6z M33.2,1644.4h-6.5v-6.5h6.5V1644.4z"/>
		<path class="st4" d="M34.3,1647h-8.8c-0.8,0-1.4-0.6-1.4-1.4v-8.8c0-0.8,0.6-1.4,1.4-1.4h8.8c0.8,0,1.4,0.6,1.4,1.4v8.8
			C35.7,1646.3,35.1,1647,34.3,1647z M25.5,1635.9c-0.5,0-0.9,0.4-0.9,0.9v8.8c0,0.5,0.4,0.9,0.9,0.9h8.8c0.5,0,0.9-0.4,0.9-0.9
			v-8.8c0-0.5-0.4-0.9-0.9-0.9H25.5z M33.4,1644.6h-7v-7h7V1644.6z M27,1644.1h5.9v-5.9H27V1644.1z"/>
	</g>
	<g>
		<path class="st4" d="M51.9,1618.1h-8.8c-0.6,0-1.2,0.5-1.2,1.2v26.3c0,0.6,0.5,1.2,1.2,1.2h8.8c0.6,0,1.2-0.5,1.2-1.2v-26.3
			C53,1618.6,52.5,1618.1,51.9,1618.1z M50.7,1644.4h-6.5v-24h6.5V1644.4z"/>
		<path class="st4" d="M51.9,1647h-8.8c-0.8,0-1.4-0.6-1.4-1.4v-26.3c0-0.8,0.6-1.4,1.4-1.4h8.8c0.8,0,1.4,0.6,1.4,1.4v26.3
			C53.3,1646.3,52.7,1647,51.9,1647z M43.1,1618.3c-0.5,0-0.9,0.4-0.9,0.9v26.3c0,0.5,0.4,0.9,0.9,0.9h8.8c0.5,0,0.9-0.4,0.9-0.9
			v-26.3c0-0.5-0.4-0.9-0.9-0.9H43.1z M51,1644.6h-7v-24.5h7V1644.6z M44.5,1644.1h5.9v-23.5h-5.9V1644.1z"/>
	</g>
	<circle class="st17" cx="67.9" cy="1630.6" r="30.1"/>
	<g id="XMLID_1_">
		<path class="st3" d="M75.6,1621.9h-2.8c-0.3-0.9-0.8-1.8-1.4-2.5h4.2c0.7,0,1.2-0.6,1.2-1.2c0-0.7-0.6-1.2-1.2-1.2H60.3
			c-0.7,0-1.2,0.6-1.2,1.2l0,0l0,0c0,0.7,0.6,1.2,1.2,1.2h5.8l0,0c1.7,0,3.2,1,4,2.5h-9.8c-0.7,0-1.2,0.6-1.2,1.2s0.6,1.2,1.2,1.2
			h10.3c-0.2,2.3-2.2,4.1-4.5,4.1h-5.8c-0.7,0-1.2,0.6-1.2,1.2l0,0l0,0c0,0.7,0.6,1.2,1.2,1.2h5.8l0,0c2.5,0,4.5,2,4.5,4.5v7.4
			c0,0.7,0.6,1.2,1.2,1.2s1.2-0.6,1.2-1.2v-7.4c0-2.4-1.2-4.5-3-5.8c1.7-1.2,2.9-3.1,3-5.4h2.5c0.7,0,1.2-0.6,1.2-1.2
			S76.3,1621.9,75.6,1621.9z"/>
		<path class="st3" d="M71.8,1644.4c-0.8,0-1.5-0.7-1.5-1.5v-7.4c0-2.3-1.9-4.3-4.2-4.3l0,0h-5.8c-0.8,0-1.5-0.7-1.5-1.5
			s0.7-1.5,1.5-1.5h5.8c2.1,0,3.9-1.6,4.2-3.6h-10c-0.8,0-1.5-0.7-1.5-1.5s0.7-1.5,1.5-1.5h9.4c-0.8-1.2-2.1-1.9-3.6-2l0,0h-5.8
			c-0.8,0-1.5-0.7-1.5-1.5s0.7-1.5,1.5-1.5h15.3c0.8,0,1.5,0.7,1.5,1.5s-0.7,1.5-1.5,1.5H72c0.4,0.6,0.8,1.3,1,2h2.6
			c0.8,0,1.5,0.7,1.5,1.5s-0.7,1.5-1.5,1.5h-2.3c-0.2,2-1.2,3.9-2.8,5.1c1.8,1.4,2.9,3.5,2.9,5.8v7.4
			C73.3,1643.7,72.7,1644.4,71.8,1644.4z M66.1,1630.7c2.6,0,4.8,2.2,4.8,4.8v7.4c0,0.5,0.4,1,1,1s1-0.4,1-1v-7.4
			c0-2.2-1.1-4.3-2.9-5.6l-0.3-0.2l0.3-0.2c1.7-1.2,2.8-3.1,2.9-5.2v-0.2h2.7c0.5,0,1-0.4,1-1s-0.4-1-1-1h-3l-0.1-0.2
			c-0.3-0.9-0.7-1.7-1.3-2.4l-0.4-0.4h4.7c0.5,0,1-0.4,1-1c0-0.5-0.4-1-1-1H60.3c-0.5,0-1,0.4-1,1c0,0.5,0.4,1,1,1h5.8
			c1.8,0,3.4,1,4.2,2.6l0.2,0.4H60.3c-0.5,0-1,0.4-1,1s0.4,1,1,1h10.6v0.3c-0.2,2.4-2.3,4.4-4.8,4.4h-5.8c-0.5,0-1,0.4-1,1
			c0,0.5,0.4,1,1,1L66.1,1630.7z"/>
	</g>
</g>
</svg>
