<?xml version="1.0" encoding="utf-8"?>
<!-- Generator: Adobe Illustrator 22.0.0, SVG Export Plug-In . SVG Version: 6.00 Build 0)  -->
<svg version="1.1" id="Layer_1" xmlns="http://www.w3.org/2000/svg" xmlns:xlink="http://www.w3.org/1999/xlink" x="0px" y="0px"
	 viewBox="0 0 46.7 45.6" style="enable-background:new 0 0 46.7 45.6;" xml:space="preserve">
<style type="text/css">
	.st0{fill:none;stroke:#59595B;stroke-miterlimit:10;}
	.st1{fill:none;stroke:#59595B;stroke-width:1.0141;stroke-miterlimit:10;}
	.st2{fill:#FFFFFF;stroke:#59595B;stroke-width:1.0141;stroke-miterlimit:10;}
	.st3{fill:#E53339;stroke:#59595B;stroke-width:1.0141;stroke-miterlimit:10;}
	.st4{fill:none;stroke:#59595B;stroke-width:1.0185;stroke-miterlimit:10;}
	.st5{fill:none;stroke:#ED1C23;stroke-width:1.0185;stroke-miterlimit:10;}
	.st6{fill:#ED1C23;}
	.st7{fill:none;stroke:#59595B;stroke-width:1.0384;stroke-miterlimit:10;}
	.st8{fill:none;stroke:#ED1C23;stroke-width:1.0384;stroke-miterlimit:10;}
	.st9{fill:none;stroke:#59595B;stroke-width:1.0041;stroke-miterlimit:10;}
	.st10{fill:none;stroke:#ED1C23;stroke-width:1.0041;stroke-miterlimit:10;}
	.st11{fill:none;stroke:#59595B;stroke-width:0.4732;stroke-miterlimit:10;}
	.st12{fill:none;stroke:#ED1C23;stroke-width:0.4732;stroke-miterlimit:10;}
	.st13{fill:none;stroke:#59595B;stroke-width:0.6098;stroke-miterlimit:10;}
	.st14{fill:none;stroke:#ED1C23;stroke-width:0.6098;stroke-miterlimit:10;}
	.st15{fill:none;stroke:#59595B;stroke-width:0.5873;stroke-miterlimit:10;}
	.st16{fill:none;stroke:#ED1C23;stroke-width:0.5873;stroke-miterlimit:10;}
	.st17{fill:none;stroke:#ED1C23;stroke-width:0.6092;stroke-miterlimit:10;}
	.st18{fill:none;stroke:#59595B;stroke-width:0.6092;stroke-miterlimit:10;}
	.st19{fill:none;stroke:#59595B;stroke-width:0.6065;stroke-miterlimit:10;}
	.st20{fill:none;stroke:#59595B;stroke-width:0.6022;stroke-miterlimit:10;}
	.st21{fill:#59595B;}
	.st22{fill:none;stroke:#59595B;stroke-width:0.9937;stroke-miterlimit:10;}
	.st23{fill:none;stroke:#ED1C23;stroke-width:0.9937;stroke-miterlimit:10;}
	.st24{fill:none;stroke:#ED1C23;stroke-width:0.6398;stroke-miterlimit:10;}
	.st25{fill:none;stroke:#59595B;stroke-width:0.6398;stroke-miterlimit:10;}
	.st26{fill:none;stroke:#59595B;stroke-width:0.3601;stroke-miterlimit:10;}
	.st27{fill:none;stroke:#ED1C23;stroke-width:0.3601;stroke-miterlimit:10;}
	.st28{fill:none;stroke:#59595B;stroke-width:0.4356;stroke-miterlimit:10;}
	.st29{fill:none;stroke:#ED1C23;stroke-width:0.4356;stroke-miterlimit:10;}
	.st30{fill:none;stroke:#59595B;stroke-width:0.4805;stroke-miterlimit:10;}
	.st31{fill:none;stroke:#ED1C23;stroke-width:0.4805;stroke-miterlimit:10;}
	.st32{fill:none;stroke:#ED1C23;stroke-width:0.4843;stroke-miterlimit:10;}
	.st33{fill:none;stroke:#59595B;stroke-width:0.4843;stroke-miterlimit:10;}
	.st34{fill:none;stroke:#ED1C23;stroke-width:0.406;stroke-miterlimit:10;}
	.st35{fill:none;stroke:#59595B;stroke-width:0.7836;stroke-miterlimit:10;}
	.st36{fill:none;stroke:#ED1C23;stroke-width:0.7836;stroke-miterlimit:10;}
	.st37{fill:none;stroke:#59595B;stroke-width:0.4459;stroke-miterlimit:10;}
	.st38{fill:none;stroke:#ED1C23;stroke-width:0.4459;stroke-miterlimit:10;}
	.st39{fill:#FFFFFF;stroke:#59595B;stroke-miterlimit:10;}
	.st40{fill:none;stroke:#E42528;stroke-linecap:round;stroke-linejoin:round;stroke-miterlimit:10;}
	.st41{fill:none;stroke:#59595B;stroke-linecap:round;stroke-linejoin:round;stroke-miterlimit:10;}
	.st42{fill:none;stroke:#59595B;stroke-width:0.7762;stroke-linecap:round;stroke-linejoin:round;stroke-miterlimit:10;}
	.st43{fill:none;stroke:#59595B;stroke-width:1.2525;stroke-linecap:round;stroke-linejoin:round;stroke-miterlimit:10;}
	.st44{fill:none;stroke:#E42528;stroke-width:1.2525;stroke-linecap:round;stroke-linejoin:round;stroke-miterlimit:10;}
	.st45{fill:none;stroke:#59595B;stroke-width:1.7055;stroke-linecap:round;stroke-linejoin:round;stroke-miterlimit:10;}
	.st46{fill:none;stroke:#E42528;stroke-width:1.7055;stroke-linecap:round;stroke-miterlimit:10;}
	.st47{fill:none;stroke:#E42528;stroke-width:2.3957;stroke-linecap:round;stroke-miterlimit:10;}
	.st48{fill:none;stroke:#59595B;stroke-width:2.3957;stroke-linecap:round;stroke-linejoin:round;stroke-miterlimit:10;}
	.st49{fill:#E42528;}
	.st50{fill:none;stroke:#E42528;stroke-width:1.5483;stroke-linecap:round;stroke-linejoin:round;stroke-miterlimit:10;}
	.st51{fill:none;stroke:#59595B;stroke-width:1.5483;stroke-linecap:round;stroke-linejoin:round;stroke-miterlimit:10;}
	.st52{fill:none;stroke:#59595B;stroke-width:2.45;stroke-linecap:round;stroke-linejoin:round;stroke-miterlimit:10;}
	.st53{fill:none;stroke:#E42528;stroke-width:2.45;stroke-linecap:round;stroke-linejoin:round;stroke-miterlimit:10;}
	.st54{fill:#FFFFFF;stroke:#59595B;stroke-width:2.45;stroke-linecap:round;stroke-linejoin:round;stroke-miterlimit:10;}
	.st55{fill:#FFFFFF;}
	.st56{fill:none;stroke:#ED1C23;stroke-miterlimit:10;}
</style>
<g>
	<polyline class="st17" points="6.7,24.3 6.7,16.2 11.4,16.2 11.4,19.5 	"/>
	<line class="st17" x1="13.2" y1="22" x2="15.3" y2="22"/>
	<line class="st17" x1="16.5" y1="22" x2="18.6" y2="22"/>
	<line class="st17" x1="19.8" y1="22" x2="21.9" y2="22"/>
	<polyline class="st18" points="1.9,29.1 18.3,12.7 35.3,29 	"/>
	<line class="st19" x1="4.9" y1="44.8" x2="4.9" y2="26.1"/>
	<line class="st19" x1="31.9" y1="44.8" x2="31.9" y2="26"/>
	<polyline class="st20" points="12.9,44.7 12.9,32.9 23.3,32.9 23.3,44.7 	"/>
	<path class="st17" d="M31.5,16.2c1.4,0.6,2.9,0.9,4.5,0.9c5.4,0,9.8-3.6,9.8-8.1S41.4,1,36,1s-9.8,3.6-9.8,8.1
		c0,1.7,0.7,3.3,1.8,4.6v4.8L31.5,16.2z"/>
	<g>
		<path class="st21" d="M32.1,6.7c0-0.5,0.2-0.9,0.5-1.3c0.3-0.3,0.8-0.5,1.4-0.5c0.6,0,1,0.2,1.4,0.5c0.3,0.3,0.5,0.8,0.5,1.3v0.5
			c0,0.5-0.2,0.9-0.5,1.3s-0.8,0.5-1.3,0.5c-0.6,0-1-0.2-1.4-0.5c-0.3-0.3-0.5-0.8-0.5-1.3V6.7z M33.1,7.1c0,0.3,0.1,0.5,0.2,0.6
			C33.5,7.9,33.7,8,33.9,8c0.3,0,0.5-0.1,0.6-0.3s0.2-0.4,0.2-0.6V6.7c0-0.3-0.1-0.5-0.2-0.7s-0.3-0.3-0.6-0.3S33.5,5.8,33.3,6
			s-0.2,0.4-0.2,0.7V7.1z M34.3,13l-0.7-0.4l4.2-6.7l0.7,0.4L34.3,13z M36.3,11.5c0-0.5,0.2-0.9,0.5-1.3c0.3-0.3,0.8-0.5,1.3-0.5
			c0.6,0,1,0.2,1.4,0.5s0.5,0.8,0.5,1.3V12c0,0.5-0.2,0.9-0.5,1.3c-0.3,0.3-0.8,0.5-1.3,0.5c-0.6,0-1-0.2-1.4-0.5
			c-0.3-0.3-0.5-0.8-0.5-1.3V11.5z M37.3,12c0,0.3,0.1,0.5,0.2,0.6s0.4,0.3,0.6,0.3c0.3,0,0.5-0.1,0.6-0.3s0.2-0.4,0.2-0.7v-0.5
			c0-0.3-0.1-0.5-0.2-0.6s-0.3-0.3-0.6-0.3s-0.5,0.1-0.6,0.3c-0.1,0.2-0.2,0.4-0.2,0.6V12z"/>
	</g>
	<line class="st17" x1="0.8" y1="44.6" x2="35.3" y2="44.6"/>
</g>
</svg>
