<?xml version="1.0" encoding="utf-8"?>
<!-- Generator: Adobe Illustrator 22.0.0, SVG Export Plug-In . SVG Version: 6.00 Build 0)  -->
<svg version="1.1" id="Layer_1" xmlns="http://www.w3.org/2000/svg" xmlns:xlink="http://www.w3.org/1999/xlink" x="0px" y="0px"
	 viewBox="0 0 48.5 45.5" style="enable-background:new 0 0 48.5 45.5;" xml:space="preserve">
<style type="text/css">
	.st0{fill:none;stroke:#59595B;stroke-miterlimit:10;}
	.st1{fill:none;stroke:#59595B;stroke-width:1.0141;stroke-miterlimit:10;}
	.st2{fill:#FFFFFF;stroke:#59595B;stroke-width:1.0141;stroke-miterlimit:10;}
	.st3{fill:#E53339;stroke:#59595B;stroke-width:1.0141;stroke-miterlimit:10;}
	.st4{fill:none;stroke:#59595B;stroke-width:1.0185;stroke-miterlimit:10;}
	.st5{fill:none;stroke:#ED1C23;stroke-width:1.0185;stroke-miterlimit:10;}
	.st6{fill:#ED1C23;}
	.st7{fill:none;stroke:#59595B;stroke-width:1.0384;stroke-miterlimit:10;}
	.st8{fill:none;stroke:#ED1C23;stroke-width:1.0384;stroke-miterlimit:10;}
	.st9{fill:none;stroke:#59595B;stroke-width:1.0041;stroke-miterlimit:10;}
	.st10{fill:none;stroke:#ED1C23;stroke-width:1.0041;stroke-miterlimit:10;}
	.st11{fill:none;stroke:#59595B;stroke-width:0.4732;stroke-miterlimit:10;}
	.st12{fill:none;stroke:#ED1C23;stroke-width:0.4732;stroke-miterlimit:10;}
	.st13{fill:none;stroke:#59595B;stroke-width:0.6098;stroke-miterlimit:10;}
	.st14{fill:none;stroke:#ED1C23;stroke-width:0.6098;stroke-miterlimit:10;}
	.st15{fill:none;stroke:#59595B;stroke-width:0.5873;stroke-miterlimit:10;}
	.st16{fill:none;stroke:#ED1C23;stroke-width:0.5873;stroke-miterlimit:10;}
	.st17{fill:none;stroke:#ED1C23;stroke-width:0.6092;stroke-miterlimit:10;}
	.st18{fill:none;stroke:#59595B;stroke-width:0.6092;stroke-miterlimit:10;}
	.st19{fill:none;stroke:#59595B;stroke-width:0.6065;stroke-miterlimit:10;}
	.st20{fill:none;stroke:#59595B;stroke-width:0.6022;stroke-miterlimit:10;}
	.st21{fill:#59595B;}
	.st22{fill:none;stroke:#59595B;stroke-width:0.9937;stroke-miterlimit:10;}
	.st23{fill:none;stroke:#ED1C23;stroke-width:0.9937;stroke-miterlimit:10;}
	.st24{fill:none;stroke:#ED1C23;stroke-width:0.6398;stroke-miterlimit:10;}
	.st25{fill:none;stroke:#59595B;stroke-width:0.6398;stroke-miterlimit:10;}
	.st26{fill:none;stroke:#59595B;stroke-width:0.3601;stroke-miterlimit:10;}
	.st27{fill:none;stroke:#ED1C23;stroke-width:0.3601;stroke-miterlimit:10;}
	.st28{fill:none;stroke:#59595B;stroke-width:0.4356;stroke-miterlimit:10;}
	.st29{fill:none;stroke:#ED1C23;stroke-width:0.4356;stroke-miterlimit:10;}
	.st30{fill:none;stroke:#59595B;stroke-width:0.4805;stroke-miterlimit:10;}
	.st31{fill:none;stroke:#ED1C23;stroke-width:0.4805;stroke-miterlimit:10;}
	.st32{fill:none;stroke:#ED1C23;stroke-width:0.4843;stroke-miterlimit:10;}
	.st33{fill:none;stroke:#59595B;stroke-width:0.4843;stroke-miterlimit:10;}
	.st34{fill:none;stroke:#ED1C23;stroke-width:0.406;stroke-miterlimit:10;}
	.st35{fill:none;stroke:#59595B;stroke-width:0.7836;stroke-miterlimit:10;}
	.st36{fill:none;stroke:#ED1C23;stroke-width:0.7836;stroke-miterlimit:10;}
	.st37{fill:none;stroke:#59595B;stroke-width:0.4459;stroke-miterlimit:10;}
	.st38{fill:none;stroke:#ED1C23;stroke-width:0.4459;stroke-miterlimit:10;}
	.st39{fill:#FFFFFF;stroke:#59595B;stroke-miterlimit:10;}
	.st40{fill:none;stroke:#E42528;stroke-linecap:round;stroke-linejoin:round;stroke-miterlimit:10;}
	.st41{fill:none;stroke:#59595B;stroke-linecap:round;stroke-linejoin:round;stroke-miterlimit:10;}
	.st42{fill:none;stroke:#59595B;stroke-width:0.7762;stroke-linecap:round;stroke-linejoin:round;stroke-miterlimit:10;}
	.st43{fill:none;stroke:#59595B;stroke-width:1.2525;stroke-linecap:round;stroke-linejoin:round;stroke-miterlimit:10;}
	.st44{fill:none;stroke:#E42528;stroke-width:1.2525;stroke-linecap:round;stroke-linejoin:round;stroke-miterlimit:10;}
	.st45{fill:none;stroke:#59595B;stroke-width:1.7055;stroke-linecap:round;stroke-linejoin:round;stroke-miterlimit:10;}
	.st46{fill:none;stroke:#E42528;stroke-width:1.7055;stroke-linecap:round;stroke-miterlimit:10;}
	.st47{fill:none;stroke:#E42528;stroke-width:2.3957;stroke-linecap:round;stroke-miterlimit:10;}
	.st48{fill:none;stroke:#59595B;stroke-width:2.3957;stroke-linecap:round;stroke-linejoin:round;stroke-miterlimit:10;}
	.st49{fill:#E42528;}
	.st50{fill:none;stroke:#E42528;stroke-width:1.5483;stroke-linecap:round;stroke-linejoin:round;stroke-miterlimit:10;}
	.st51{fill:none;stroke:#59595B;stroke-width:1.5483;stroke-linecap:round;stroke-linejoin:round;stroke-miterlimit:10;}
	.st52{fill:none;stroke:#59595B;stroke-width:2.45;stroke-linecap:round;stroke-linejoin:round;stroke-miterlimit:10;}
	.st53{fill:none;stroke:#E42528;stroke-width:2.45;stroke-linecap:round;stroke-linejoin:round;stroke-miterlimit:10;}
	.st54{fill:#FFFFFF;stroke:#59595B;stroke-width:2.45;stroke-linecap:round;stroke-linejoin:round;stroke-miterlimit:10;}
	.st55{fill:#FFFFFF;}
	.st56{fill:none;stroke:#ED1C23;stroke-miterlimit:10;}
</style>
<g>
	<g>
		<path class="st6" d="M20.4,13.3c0-0.5,0.2-1,0.5-1.3c0.3-0.4,0.8-0.5,1.3-0.5c0.6,0,1,0.2,1.3,0.5c0.3,0.4,0.5,0.8,0.5,1.3v0.5
			c0,0.5-0.2,1-0.5,1.3c-0.3,0.3-0.8,0.5-1.3,0.5c-0.6,0-1-0.2-1.3-0.5c-0.3-0.3-0.5-0.8-0.5-1.3V13.3z M21.4,13.8
			c0,0.3,0.1,0.5,0.2,0.7c0.1,0.2,0.3,0.3,0.6,0.3c0.3,0,0.5-0.1,0.6-0.3c0.1-0.2,0.2-0.4,0.2-0.7v-0.5c0-0.3-0.1-0.5-0.2-0.7
			s-0.3-0.3-0.6-0.3c-0.3,0-0.5,0.1-0.6,0.3c-0.1,0.2-0.2,0.4-0.2,0.7V13.8z M21.3,23.1l-0.7-0.4l7.1-12.4l0.7,0.4L21.3,23.1z
			 M24.5,20.5c0-0.5,0.2-1,0.5-1.3c0.3-0.4,0.8-0.5,1.3-0.5c0.6,0,1,0.2,1.3,0.5c0.3,0.4,0.5,0.8,0.5,1.3V21c0,0.5-0.2,1-0.5,1.3
			c-0.3,0.3-0.8,0.5-1.3,0.5c-0.6,0-1-0.2-1.3-0.5s-0.5-0.8-0.5-1.3V20.5z M25.4,21c0,0.3,0.1,0.5,0.2,0.7s0.3,0.3,0.6,0.3
			c0.3,0,0.5-0.1,0.6-0.3s0.2-0.4,0.2-0.7v-0.5c0-0.3-0.1-0.5-0.2-0.7s-0.3-0.3-0.6-0.3c-0.3,0-0.5,0.1-0.6,0.3s-0.2,0.4-0.2,0.7V21
			z"/>
	</g>
	<line class="st15" x1="0.7" y1="1.1" x2="47.7" y2="1.1"/>
	<line class="st15" x1="0.7" y1="33.2" x2="47.7" y2="33.2"/>
	<g>
		<line class="st15" x1="6" y1="1.1" x2="6" y2="33.2"/>
		<line class="st15" x1="42.3" y1="1.1" x2="42.3" y2="33.2"/>
	</g>
	<g>
		<path class="st15" d="M15.5,45.1c0.5-1.1,5.3-11.9,5.3-11.9"/>
		<path class="st15" d="M15.5,45.1c0.5-1.1,5.3-11.9,5.3-11.9"/>
		<path class="st15" d="M32.8,45.1c-0.5-1.1-5.3-11.9-5.3-11.9"/>
		<line class="st15" x1="18.2" y1="39.1" x2="30.2" y2="39.1"/>
	</g>
	<ellipse class="st16" cx="24" cy="16.7" rx="10.7" ry="11.4"/>
</g>
</svg>
