<?xml version="1.0" encoding="utf-8"?>
<!-- Generator: Adobe Illustrator 22.0.0, SVG Export Plug-In . SVG Version: 6.00 Build 0)  -->
<svg version="1.1" id="Layer_1" xmlns="http://www.w3.org/2000/svg" xmlns:xlink="http://www.w3.org/1999/xlink" x="0px" y="0px"
	 viewBox="0 0 60.8 43.9" style="enable-background:new 0 0 60.8 43.9;" xml:space="preserve">
<style type="text/css">
	.st0{fill:none;stroke:#ED1C23;stroke-width:0.6398;stroke-miterlimit:10;}
	.st1{fill:#ED1C23;}
	.st2{fill:none;stroke:#59595B;stroke-width:0.6398;stroke-miterlimit:10;}
</style>
<g>
	<polyline class="st0" points="3.3,11.3 2,5.4 5.1,4.6 5.6,7 	"/>
	<polyline class="st0" points="27,26 27,42.9 38.1,42.9 38.1,23.1 	"/>
	<g>
		<path class="st1" d="M49.4,2.9l5.2-1.5l0,0c-0.2,0.7-0.3,1.1-0.3,1.1L52.9,3c0.3,0.2,0.5,0.5,0.6,0.9L55,3.5l0,0
			c-0.2,0.7-0.3,1.1-0.3,1.1l-1,0.3c0.1,0.3,0,0.7-0.1,1.3c-0.2,0.5-0.4,0.9-0.7,1.1C52.5,7.7,52,8,51.6,8.2l0,0
			c0,0,0.2,0.2,0.5,0.5l3.5,3.2v0.2l0,0l-1.1,0.3c-2.7-2.4-4.1-3.6-4.1-3.6l-0.2-0.9l0,0c0.2,0,0.4-0.1,0.6-0.1c1.1-0.3,1.7-1,1.8-2
			c0-0.1,0-0.3,0-0.4l-3,0.6l0,0c0.2-0.7,0.3-1.1,0.3-1.1l2.5-0.7l0,0c-0.2-0.3-0.6-0.5-1-0.6c-0.3,0-0.6,0-0.8,0L49.1,4l0,0
			C49.3,3.3,49.4,2.9,49.4,2.9z"/>
	</g>
	<polyline class="st2" points="0.8,15.6 9.1,0.9 22.7,10 	"/>
	<line class="st2" x1="5.2" y1="26.7" x2="2.3" y2="12.9"/>
	<line class="st2" x1="22.8" y1="22.2" x2="20" y2="8.4"/>
	<polyline class="st2" points="10.4,25.4 8.6,16.6 15.4,14.8 17.2,23.7 	"/>
	<polygon class="st2" points="59.8,17.6 3.6,32 2.7,27.5 58.9,13.1 	"/>
</g>
</svg>
