<?xml version="1.0" encoding="utf-8"?>
<!-- Generator: Adobe Illustrator 22.0.0, SVG Export Plug-In . SVG Version: 6.00 Build 0)  -->
<svg version="1.1" id="Layer_1" xmlns="http://www.w3.org/2000/svg" xmlns:xlink="http://www.w3.org/1999/xlink" x="0px" y="0px"
	 viewBox="0 0 96 69" style="enable-background:new 0 0 96 69;" xml:space="preserve">
<style type="text/css">
	.st0{fill:none;stroke:#59595B;stroke-miterlimit:10;}
	.st1{fill:none;stroke:#59595B;stroke-width:1.0141;stroke-miterlimit:10;}
	.st2{fill:#FFFFFF;stroke:#59595B;stroke-width:1.0141;stroke-miterlimit:10;}
	.st3{fill:#E53339;stroke:#59595B;stroke-width:1.0141;stroke-miterlimit:10;}
	.st4{fill:none;stroke:#59595B;stroke-width:1.0185;stroke-miterlimit:10;}
	.st5{fill:none;stroke:#ED1C23;stroke-width:1.0185;stroke-miterlimit:10;}
	.st6{fill:#ED1C23;}
	.st7{fill:none;stroke:#59595B;stroke-width:1.0384;stroke-miterlimit:10;}
	.st8{fill:none;stroke:#ED1C23;stroke-width:1.0384;stroke-miterlimit:10;}
	.st9{fill:none;stroke:#59595B;stroke-width:1.0041;stroke-miterlimit:10;}
	.st10{fill:none;stroke:#ED1C23;stroke-width:1.0041;stroke-miterlimit:10;}
	.st11{fill:none;stroke:#59595B;stroke-width:0.4732;stroke-miterlimit:10;}
	.st12{fill:none;stroke:#ED1C23;stroke-width:0.4732;stroke-miterlimit:10;}
	.st13{fill:none;stroke:#59595B;stroke-width:0.6098;stroke-miterlimit:10;}
	.st14{fill:none;stroke:#ED1C23;stroke-width:0.6098;stroke-miterlimit:10;}
	.st15{fill:none;stroke:#59595B;stroke-width:0.5873;stroke-miterlimit:10;}
	.st16{fill:none;stroke:#ED1C23;stroke-width:0.5873;stroke-miterlimit:10;}
	.st17{fill:none;stroke:#ED1C23;stroke-width:0.6092;stroke-miterlimit:10;}
	.st18{fill:none;stroke:#59595B;stroke-width:0.6092;stroke-miterlimit:10;}
	.st19{fill:none;stroke:#59595B;stroke-width:0.6065;stroke-miterlimit:10;}
	.st20{fill:none;stroke:#59595B;stroke-width:0.6022;stroke-miterlimit:10;}
	.st21{fill:#59595B;}
	.st22{fill:none;stroke:#59595B;stroke-width:0.9937;stroke-miterlimit:10;}
	.st23{fill:none;stroke:#ED1C23;stroke-width:0.9937;stroke-miterlimit:10;}
	.st24{fill:none;stroke:#ED1C23;stroke-width:0.6398;stroke-miterlimit:10;}
	.st25{fill:none;stroke:#59595B;stroke-width:0.6398;stroke-miterlimit:10;}
	.st26{fill:none;stroke:#59595B;stroke-width:0.3601;stroke-miterlimit:10;}
	.st27{fill:none;stroke:#ED1C23;stroke-width:0.3601;stroke-miterlimit:10;}
	.st28{fill:none;stroke:#59595B;stroke-width:0.4356;stroke-miterlimit:10;}
	.st29{fill:none;stroke:#ED1C23;stroke-width:0.4356;stroke-miterlimit:10;}
	.st30{fill:none;stroke:#59595B;stroke-width:0.4805;stroke-miterlimit:10;}
	.st31{fill:none;stroke:#ED1C23;stroke-width:0.4805;stroke-miterlimit:10;}
	.st32{fill:none;stroke:#ED1C23;stroke-width:0.4843;stroke-miterlimit:10;}
	.st33{fill:none;stroke:#59595B;stroke-width:0.4843;stroke-miterlimit:10;}
	.st34{fill:none;stroke:#ED1C23;stroke-width:0.406;stroke-miterlimit:10;}
	.st35{fill:none;stroke:#59595B;stroke-width:0.7836;stroke-miterlimit:10;}
	.st36{fill:none;stroke:#ED1C23;stroke-width:0.7836;stroke-miterlimit:10;}
	.st37{fill:none;stroke:#59595B;stroke-width:0.4459;stroke-miterlimit:10;}
	.st38{fill:none;stroke:#ED1C23;stroke-width:0.4459;stroke-miterlimit:10;}
	.st39{fill:#FFFFFF;stroke:#59595B;stroke-miterlimit:10;}
	.st40{fill:none;stroke:#E42528;stroke-linecap:round;stroke-linejoin:round;stroke-miterlimit:10;}
	.st41{fill:none;stroke:#59595B;stroke-linecap:round;stroke-linejoin:round;stroke-miterlimit:10;}
	.st42{fill:none;stroke:#59595B;stroke-width:0.7762;stroke-linecap:round;stroke-linejoin:round;stroke-miterlimit:10;}
	.st43{fill:none;stroke:#59595B;stroke-width:1.2525;stroke-linecap:round;stroke-linejoin:round;stroke-miterlimit:10;}
	.st44{fill:none;stroke:#E42528;stroke-width:1.2525;stroke-linecap:round;stroke-linejoin:round;stroke-miterlimit:10;}
	.st45{fill:none;stroke:#59595B;stroke-width:1.7055;stroke-linecap:round;stroke-linejoin:round;stroke-miterlimit:10;}
	.st46{fill:none;stroke:#E42528;stroke-width:1.7055;stroke-linecap:round;stroke-miterlimit:10;}
	.st47{fill:none;stroke:#E42528;stroke-width:2.3957;stroke-linecap:round;stroke-miterlimit:10;}
	.st48{fill:none;stroke:#59595B;stroke-width:2.3957;stroke-linecap:round;stroke-linejoin:round;stroke-miterlimit:10;}
	.st49{fill:#E42528;}
	.st50{fill:none;stroke:#E42528;stroke-width:1.5483;stroke-linecap:round;stroke-linejoin:round;stroke-miterlimit:10;}
	.st51{fill:none;stroke:#59595B;stroke-width:1.5483;stroke-linecap:round;stroke-linejoin:round;stroke-miterlimit:10;}
	.st52{fill:none;stroke:#59595B;stroke-width:2.45;stroke-linecap:round;stroke-linejoin:round;stroke-miterlimit:10;}
	.st53{fill:none;stroke:#E42528;stroke-width:2.45;stroke-linecap:round;stroke-linejoin:round;stroke-miterlimit:10;}
	.st54{fill:#FFFFFF;stroke:#59595B;stroke-width:2.45;stroke-linecap:round;stroke-linejoin:round;stroke-miterlimit:10;}
	.st55{fill:#FFFFFF;}
	.st56{fill:none;stroke:#ED1C23;stroke-miterlimit:10;}
</style>
<g>
	<polyline class="st4" points="4,36.3 61.7,10.7 90,31.2 	"/>
	<line class="st5" x1="63.2" y1="4" x2="91.5" y2="24.5"/>
	<line class="st4" x1="13.1" y1="64" x2="13.1" y2="32.3"/>
	<line class="st4" x1="81.4" y1="24.9" x2="81.4" y2="64"/>
	<line class="st5" x1="4" y1="64" x2="92" y2="64"/>
	<polyline class="st5" points="23.8,27.5 23.8,10.7 35.4,10.7 35.4,22.4 	"/>
	<path class="st4" d="M48.3,34.8c1.6-3.9,5.4-6.7,9.8-6.7c5.9,0,10.6,4.8,10.6,10.8"/>
	<path class="st4" d="M67.9,43c-1.6,3.9-5.4,6.7-9.8,6.7c-5.9,0-10.6-4.8-10.6-10.8"/>
	<polyline class="st4" points="62.9,43 67.9,43 67.9,48.1 	"/>
	<polyline class="st4" points="53.4,34.8 48.3,34.8 48.3,29.6 	"/>
	<g>
		<path class="st6" d="M56.3,35.6h4.8v0c-0.3,0.5-0.4,0.8-0.5,0.8h-1.3c0.2,0.2,0.3,0.5,0.4,0.9h1.4c0,0,0,0,0,0
			c-0.3,0.5-0.5,0.8-0.5,0.8h-0.9c0,0.3-0.1,0.6-0.3,1c-0.3,0.4-0.5,0.6-0.8,0.8c-0.5,0.3-0.9,0.4-1.3,0.4v0c0,0,0.1,0.2,0.3,0.5
			l2.4,3.3v0.2c0,0,0,0,0,0h-1c-1.9-2.5-2.8-3.8-2.8-3.8v-0.8l0,0c0.2,0,0.4,0,0.6,0c1.1,0,1.7-0.4,2-1.2c0-0.1,0.1-0.2,0.1-0.4
			h-2.9c0,0,0,0,0,0c0.3-0.5,0.5-0.8,0.5-0.8h2.3v0c-0.1-0.3-0.4-0.5-0.8-0.7c-0.3-0.1-0.5-0.2-0.7-0.2h-1.3v0
			C56.2,35.9,56.3,35.6,56.3,35.6z"/>
	</g>
</g>
</svg>
