<?xml version="1.0" encoding="utf-8"?>
<!-- Generator: Adobe Illustrator 22.0.0, SVG Export Plug-In . SVG Version: 6.00 Build 0)  -->
<svg version="1.1" id="Layer_1" xmlns="http://www.w3.org/2000/svg" xmlns:xlink="http://www.w3.org/1999/xlink" x="0px" y="0px"
	 viewBox="0 0 89.5 89.7" style="enable-background:new 0 0 89.5 89.7;" xml:space="preserve">
<style type="text/css">
	.st0{fill:none;stroke:#59595B;stroke-miterlimit:10;}
	.st1{fill:none;stroke:#59595B;stroke-width:1.0141;stroke-miterlimit:10;}
	.st2{fill:#FFFFFF;stroke:#59595B;stroke-width:1.0141;stroke-miterlimit:10;}
	.st3{fill:#E53339;stroke:#59595B;stroke-width:1.0141;stroke-miterlimit:10;}
	.st4{fill:none;stroke:#59595B;stroke-width:1.0185;stroke-miterlimit:10;}
	.st5{fill:none;stroke:#ED1C23;stroke-width:1.0185;stroke-miterlimit:10;}
	.st6{fill:#ED1C23;}
	.st7{fill:none;stroke:#59595B;stroke-width:1.0384;stroke-miterlimit:10;}
	.st8{fill:none;stroke:#ED1C23;stroke-width:1.0384;stroke-miterlimit:10;}
	.st9{fill:none;stroke:#59595B;stroke-width:1.0041;stroke-miterlimit:10;}
	.st10{fill:none;stroke:#ED1C23;stroke-width:1.0041;stroke-miterlimit:10;}
	.st11{fill:none;stroke:#59595B;stroke-width:0.4732;stroke-miterlimit:10;}
	.st12{fill:none;stroke:#ED1C23;stroke-width:0.4732;stroke-miterlimit:10;}
	.st13{fill:none;stroke:#59595B;stroke-width:0.6098;stroke-miterlimit:10;}
	.st14{fill:none;stroke:#ED1C23;stroke-width:0.6098;stroke-miterlimit:10;}
	.st15{fill:none;stroke:#59595B;stroke-width:0.5873;stroke-miterlimit:10;}
	.st16{fill:none;stroke:#ED1C23;stroke-width:0.5873;stroke-miterlimit:10;}
	.st17{fill:none;stroke:#ED1C23;stroke-width:0.6092;stroke-miterlimit:10;}
	.st18{fill:none;stroke:#59595B;stroke-width:0.6092;stroke-miterlimit:10;}
	.st19{fill:none;stroke:#59595B;stroke-width:0.6065;stroke-miterlimit:10;}
	.st20{fill:none;stroke:#59595B;stroke-width:0.6022;stroke-miterlimit:10;}
	.st21{fill:#59595B;}
	.st22{fill:none;stroke:#59595B;stroke-width:0.9937;stroke-miterlimit:10;}
	.st23{fill:none;stroke:#ED1C23;stroke-width:0.9937;stroke-miterlimit:10;}
	.st24{fill:none;stroke:#ED1C23;stroke-width:0.6398;stroke-miterlimit:10;}
	.st25{fill:none;stroke:#59595B;stroke-width:0.6398;stroke-miterlimit:10;}
	.st26{fill:none;stroke:#59595B;stroke-width:0.3601;stroke-miterlimit:10;}
	.st27{fill:none;stroke:#ED1C23;stroke-width:0.3601;stroke-miterlimit:10;}
	.st28{fill:none;stroke:#59595B;stroke-width:0.4356;stroke-miterlimit:10;}
	.st29{fill:none;stroke:#ED1C23;stroke-width:0.4356;stroke-miterlimit:10;}
	.st30{fill:none;stroke:#59595B;stroke-width:0.4805;stroke-miterlimit:10;}
	.st31{fill:none;stroke:#ED1C23;stroke-width:0.4805;stroke-miterlimit:10;}
	.st32{fill:none;stroke:#ED1C23;stroke-width:0.4843;stroke-miterlimit:10;}
	.st33{fill:none;stroke:#59595B;stroke-width:0.4843;stroke-miterlimit:10;}
	.st34{fill:none;stroke:#ED1C23;stroke-width:0.406;stroke-miterlimit:10;}
	.st35{fill:none;stroke:#59595B;stroke-width:0.7836;stroke-miterlimit:10;}
	.st36{fill:none;stroke:#ED1C23;stroke-width:0.7836;stroke-miterlimit:10;}
	.st37{fill:none;stroke:#59595B;stroke-width:0.4459;stroke-miterlimit:10;}
	.st38{fill:none;stroke:#ED1C23;stroke-width:0.4459;stroke-miterlimit:10;}
	.st39{fill:#FFFFFF;stroke:#59595B;stroke-miterlimit:10;}
	.st40{fill:none;stroke:#E42528;stroke-linecap:round;stroke-linejoin:round;stroke-miterlimit:10;}
	.st41{fill:none;stroke:#59595B;stroke-linecap:round;stroke-linejoin:round;stroke-miterlimit:10;}
	.st42{fill:none;stroke:#59595B;stroke-width:0.7762;stroke-linecap:round;stroke-linejoin:round;stroke-miterlimit:10;}
	.st43{fill:none;stroke:#59595B;stroke-width:1.2525;stroke-linecap:round;stroke-linejoin:round;stroke-miterlimit:10;}
	.st44{fill:none;stroke:#E42528;stroke-width:1.2525;stroke-linecap:round;stroke-linejoin:round;stroke-miterlimit:10;}
	.st45{fill:none;stroke:#59595B;stroke-width:1.7055;stroke-linecap:round;stroke-linejoin:round;stroke-miterlimit:10;}
	.st46{fill:none;stroke:#E42528;stroke-width:1.7055;stroke-linecap:round;stroke-miterlimit:10;}
	.st47{fill:none;stroke:#E42528;stroke-width:2.3957;stroke-linecap:round;stroke-miterlimit:10;}
	.st48{fill:none;stroke:#59595B;stroke-width:2.3957;stroke-linecap:round;stroke-linejoin:round;stroke-miterlimit:10;}
	.st49{fill:#E42528;}
	.st50{fill:none;stroke:#E42528;stroke-width:1.5483;stroke-linecap:round;stroke-linejoin:round;stroke-miterlimit:10;}
	.st51{fill:none;stroke:#59595B;stroke-width:1.5483;stroke-linecap:round;stroke-linejoin:round;stroke-miterlimit:10;}
	.st52{fill:none;stroke:#59595B;stroke-width:2.45;stroke-linecap:round;stroke-linejoin:round;stroke-miterlimit:10;}
	.st53{fill:none;stroke:#E42528;stroke-width:2.45;stroke-linecap:round;stroke-linejoin:round;stroke-miterlimit:10;}
	.st54{fill:#FFFFFF;stroke:#59595B;stroke-width:2.45;stroke-linecap:round;stroke-linejoin:round;stroke-miterlimit:10;}
	.st55{fill:#FFFFFF;}
	.st56{fill:none;stroke:#ED1C23;stroke-miterlimit:10;}
</style>
<g>
	<g>
		<path class="st6" d="M57.4,55.1h10v0c-0.6,1-0.9,1.6-1,1.7h-2.7c0.4,0.5,0.6,1.1,0.7,1.8h2.8c0,0,0,0,0,0c-0.6,1.1-1,1.6-1,1.6
			h-1.8c0,0.6-0.3,1.2-0.7,2c-0.6,0.8-1.1,1.3-1.6,1.6c-1,0.5-1.9,0.8-2.8,0.8v0c0,0.1,0.2,0.4,0.7,1l4.9,6.8v0.3c0,0,0,0,0,0h-2.2
			C58.9,67.6,57,65,57,65v-1.6l0-0.1c0.3,0.1,0.7,0.1,1.2,0.1c2.2,0,3.5-0.8,4.1-2.4c0.1-0.2,0.1-0.5,0.1-0.7h-5.9c0,0,0,0,0-0.1
			c0.7-1.1,1-1.6,1-1.6h4.7v0c-0.3-0.6-0.8-1.1-1.6-1.5c-0.6-0.2-1.1-0.3-1.5-0.3h-2.6v-0.1C57.1,55.6,57.4,55.1,57.4,55.1z"/>
	</g>
	<polyline class="st9" points="85,75.1 85,84.5 19.2,84.5 19.2,51.8 	"/>
	<polyline class="st9" points="42,8.2 71.8,8.2 85,22.4 85,68.2 	"/>
	<polyline class="st9" points="71.6,7.9 71.6,22.1 85,22.1 	"/>
	<polyline class="st9" points="41.4,25.9 41.4,51.8 4,51.8 4,3.5 41.4,3.5 41.4,19.5 	"/>
	<rect x="8.5" y="7.9" class="st10" width="28.5" height="8.1"/>
	<rect x="8.5" y="19.6" class="st9" width="7" height="5.6"/>
	<rect x="19.2" y="19.6" class="st9" width="7" height="5.6"/>
	<rect x="30" y="19.6" class="st9" width="7" height="5.6"/>
	<rect x="8.5" y="30.3" class="st9" width="7" height="5.6"/>
	<rect x="19.2" y="30.3" class="st9" width="7" height="5.6"/>
	<rect x="30" y="30.3" class="st9" width="7" height="16.3"/>
	<rect x="8.5" y="41" class="st9" width="7" height="5.6"/>
	<rect x="19.2" y="41" class="st9" width="7" height="5.6"/>
	<line class="st9" x1="26.2" y1="63.6" x2="36.9" y2="63.6"/>
	<line class="st9" x1="26.2" y1="69.7" x2="36.9" y2="69.7"/>
	<path class="st9" d="M49.1,50.2c3.2-3.5,7.8-5.6,12.9-5.6c9.8,0,17.7,8,17.7,17.8s-7.9,17.8-17.7,17.8s-17.7-8-17.7-17.8
		c0-3.2,0.8-6.2,2.3-8.7"/>
	<g>
		<path class="st9" d="M51.3,15.8l1.3,5.5l20.9,21c0.6,0.6,1.3,0.9,2.2,0.9H76c1.8,0,3.2-1.5,3-3.3v0c-0.1-0.7-0.4-1.4-0.9-1.9
			L56.9,16.7L51.3,15.8z"/>
		<line class="st9" x1="51.3" y1="15.8" x2="48.8" y2="13.3"/>
		<line class="st9" x1="69" y1="37.7" x2="73.4" y2="33.3"/>
		<polyline class="st9" points="76.6,36.5 79,34.1 72.2,27.2 		"/>
	</g>
</g>
</svg>
